<svg viewBox="0 0 473.47 473.47" xmlns="http://www.w3.org/2000/svg"><path d="m192.27 200.46c-.53.54-1.02 1.09-1.48 1.65l-.68.55c-.19.11 1.16-1.22 2.16-2.2z"/><path d="m236.73 0c-130.74 0-236.73 105.99-236.73 236.73s105.99 236.73 236.73 236.73 236.74-105.98 236.74-236.73-105.99-236.73-236.74-236.73zm90.32 340.39c-14.36 7.19-29.32 15.99-52.37 13.54-35.77-3.81-57.41-26.99-80.52-51.74-20.88-22.37-77.01-82.49-59-145.25 3.16-11.04 8.12-20.39 13.44-28.07 6.92-10 17.03-14.92 29.56-1.82l24.93 22.85c15.11 14.27 15.64 20.85 9.59 32.28-1.83 3.46-2.27 3.29-4.71 6.32-2.17 2.7-8.19 7.1-11.2 8.83l-5.98 4.78c-7.71 9.51-4.53 21.34 3.89 31.94l36.36 45.74c9.73 12.24 27.26 14.88 40.15 6.05l2.74-1.87c19.14-20.35 32.11-16.41 47.83 5.93l16.35 24c9.19 12.82-.25 21.09-11.06 26.49z"/><path d="m192.27 200.46c-.53.54-1.02 1.09-1.48 1.65l-.68.55c-.19.11 1.16-1.22 2.16-2.2z" fill="#fff"/></svg>