<svg viewBox="0 0 473.47 473.47" xmlns="http://www.w3.org/2000/svg"><path d="m236.73 0c-130.74 0-236.73 105.99-236.73 236.74s105.99 236.73 236.73 236.73 236.73-105.99 236.73-236.73-105.98-236.74-236.73-236.74zm109.38 284.01c-12.41 16.11-27.54 24.16-45.38 24.16-23.13 0-34.75-12.56-34.85-37.7h-.8c-7.71 25.14-22.86 37.7-45.46 37.7-14.47 0-26.11-5.33-34.93-16-8.82-10.66-13.22-25.03-13.22-43.08 0-23.87 6.09-43.7 18.29-59.49 12.2-15.78 28.22-23.68 48.08-23.68 7.6 0 14.39 1.96 20.35 5.86 5.97 3.91 9.8 8.82 11.49 14.73h.63c.21-2.95.74-9.03 1.59-18.21h19.8c-4.97 58.19-7.45 87.81-7.45 88.86 0 21.86 6.28 32.8 18.85 32.8 11.41 0 20.89-6.18 28.44-18.54s11.32-28.35 11.32-48c0-29.04-9.18-52.75-27.56-71.12-18.38-18.38-43.83-27.56-76.35-27.56s-57.29 10.98-77.78 32.94c-20.49 21.97-30.73 49.43-30.73 82.38s9.74 58.58 29.22 78.49c19.49 19.9 45.76 29.86 78.81 29.86 26.09 0 48.37-4.33 66.85-12.99v19.64c-18.27 7.82-41.08 11.72-68.43 11.72-38.44 0-69.41-11.59-92.91-34.77s-35.24-53.51-35.24-91 12.32-70.71 36.98-96.16 56.16-38.17 94.49-38.17c35.91 0 65.64 10.66 89.19 31.99 23.55 21.34 35.32 49.17 35.32 83.49 0 25.13-6.2 45.75-18.61 61.85z"/><path d="m266.19 218.2c0 21.54-3.83 38.83-11.48 51.87-7.66 13.05-18.03 19.57-31.13 19.57-9.08 0-16.34-3.59-21.78-10.77s-8.16-17.01-8.16-29.47c0-18.48 4.04-33.95 12.12-46.41s18.67-18.69 31.76-18.69c19.11 0 28.67 11.3 28.67 33.9z"/></svg>