<svg viewBox="0 0 473.47 473.47" xmlns="http://www.w3.org/2000/svg"><path d="m236.73 0c-130.74 0-236.73 105.99-236.73 236.74s105.99 236.73 236.73 236.73 236.74-105.99 236.74-236.73-105.99-236.74-236.74-236.74zm5.33 363.76c-2.65 3.59-8 3.59-10.65 0-19.63-26.63-86.42-109.15-86.89-164.53-.43-50.93 41.29-92.22 92.22-92.22s92.22 41.29 92.22 92.22c0 43.5-67.27 137.9-86.9 164.53z"/><path d="m286.6 199.24c0 27.54-22.32 49.86-49.86 49.86s-49.87-22.32-49.87-49.86 22.33-49.87 49.87-49.87 49.86 22.33 49.86 49.87z"/></svg>