<svg viewBox="0 0 473.47 473.47" xmlns="http://www.w3.org/2000/svg"><circle cx="236.73" cy="236.73" r="236.73"/><g fill="#fff"><path d="m361.42 244.75c-.24 0-12.1-7.95-26.36-17.67l-95.14-64.87c-1.72-1.18-4.34-1.17-6.06 0l-94.91 64.85c-14.24 9.73-26.09 17.69-26.33 17.69s-.44 11.91-.44 26.46v78.74c0 1.9 2.03 3.44 4.53 3.44h77.28c2.5 0 4.53-1.54 4.53-3.44v-81.37c0-3.95 4.21-7.15 9.41-7.15h57.93c5.19 0 9.41 3.2 9.41 7.15v81.37c0 1.9 2.03 3.44 4.53 3.44h77.54c2.5 0 4.53-1.54 4.53-3.44v-78.74c0-14.55-.2-26.46-.44-26.46z"/><path d="m368.63 208.05-43.68-29.85s0-.02 0-.03v-32.91c0-1.45-1.18-2.63-2.63-2.63h-31.51c-1.45 0-2.63 1.18-2.63 2.63v7.82l-45.74-31.25c-3.43-2.34-7.94-2.36-11.39-.03l-126.17 85.1c-5.61 3.78-7.09 11.4-3.31 17.01s11.4 7.09 17.01 3.31l118.09-79.64 118.12 80.71c2.11 1.45 4.52 2.14 6.9 2.14 3.91 0 7.76-1.87 10.13-5.34 3.82-5.59 2.38-13.21-3.2-17.03z"/></g></svg>