<svg viewBox="0 0 473.47 473.46" xmlns="http://www.w3.org/2000/svg"><path d="m236.73 0c-130.74 0-236.73 105.98-236.73 236.73s105.99 236.73 236.73 236.73 236.74-105.99 236.74-236.73-105.99-236.73-236.74-236.73zm-108.74 322.69 8.68-46.04h-18.33c-13.81 0-25.1-11.29-25.1-25.1v-98.36c0-13.8 11.29-25.09 25.1-25.09h171.33c13.8 0 25.09 11.29 25.09 25.09v98.36c0 13.81-11.29 25.1-25.09 25.1h-124.33zm252.25-9.77c0 10.17-8.33 18.5-18.51 18.5h-13.52l6.41 33.95-27.54-33.95h-91.66c-10.18 0-18.5-8.33-18.5-18.5v-26.27h72.75c19.35 0 35.09-15.74 35.09-35.1v-29.65h36.97c10.18 0 18.51 8.32 18.51 18.5z"/></svg>