<svg enable-background="new 0 0 407 104.5" viewBox="0 0 407 104.5" xmlns="http://www.w3.org/2000/svg"><path d="m82.4 59.7h-70.5l7.9-14.9h54.8z"/><path d="m101.9 89.6 29.5-56.1c1.2-2.3 3.6-3.7 6.1-3.7 5.2 0 8.6 5.5 6.1 10.2l-33.9 64.5h-15.6l-47-89.6-31.4 59.8h-15.7l39.2-74.7h15.7z" fill="#26d07c"/><path d="m396.1 49-7.6-1.8c-3.1-.8-4.7-2.3-4.7-4.7 0-3.1 2.9-5.1 6.8-5.1 4.3 0 6.8 2.3 7.7 5.2h8.6c-1.4-7.3-6.9-12.6-16.4-12.6-8.7 0-15.2 5.5-15.2 13.4 0 7.1 4.6 10.5 10.6 11.9l7.4 1.8c3.6.8 5.1 2.3 5.1 4.9 0 3.5-2.8 5.4-7 5.4-4.1 0-7.1-1.8-8.3-5.6h-8.9c1.4 8.3 8 13.1 17.2 13.1 8.8 0 15.4-5.1 15.4-13.5.2-6.8-4-10.8-10.7-12.4z"/><path d="m192.2 29.9-17.6 44.8h9.4l3.9-9.9h18.3l3.9 9.9h9.4l-17.6-44.8zm-.9 26.1 5.7-14.5 5.7 14.5z"/><path d="m231.6 38.6h21.5l-21.5 27.3v8.8h32.6v-8.8h-21.5l21.5-27.3v-8.7h-32.6z"/><path d="m280.5 32.7v5.9 9.3 8.8 9.2 3.5 5.3h32.5v-8.8h-23.7v-9.2h19.7v-8.8h-19.7v-9.3h23.7v-8.7h-32.5z"/><path d="m325.3 29.9v8.7h14v36.1h8.7v-36.1h14v-8.7z"/></svg>