<svg enable-background="new 0 0 525 101" height="101" viewBox="0 0 525 101" width="525" xmlns="http://www.w3.org/2000/svg"><path d="m442.9 25.1c-2.5 0-4.5 2-4.5 4.5s2 4.5 4.5 4.5 4.5-2 4.5-4.5c0-2.4-2-4.5-4.5-4.5" fill="#f18a00"/><path d="m431 29c-2.5 0-4.5 2-4.5 4.5s2 4.5 4.5 4.5 4.5-2 4.5-4.5-2-4.5-4.5-4.5" fill="#f18a00"/><path d="m423.7 39.2c-2.5 0-4.5 2-4.5 4.5s2 4.5 4.5 4.5 4.5-2 4.5-4.5-2.1-4.5-4.5-4.5" fill="#f18a00"/><path d="m434.8 86.2c-2.9 0-5.3-2.4-5.3-5.3s2.4-5.3 5.3-5.3 5.3 2.4 5.3 5.3-2.4 5.3-5.3 5.3" fill="#f18a00"/><path d="m403.9 78.8c-2.7 0-4.9-2.2-4.9-4.9s2.2-4.9 4.9-4.9 4.9 2.2 4.9 4.9-2.2 4.9-4.9 4.9" fill="#f18a00"/><path d="m419.8 82.1c-2.9 0-5.3-2.4-5.3-5.3s2.4-5.3 5.3-5.3 5.3 2.4 5.3 5.3c0 3-2.4 5.3-5.3 5.3" fill="#f18a00"/><path d="m442.9 74.7c-2.5 0-4.5-2-4.5-4.5s2-4.5 4.5-4.5 4.5 2 4.5 4.5-2 4.5-4.5 4.5" fill="#f18a00"/><path d="m431 70.8c-2.5 0-4.5-2-4.5-4.5s2-4.5 4.5-4.5 4.5 2 4.5 4.5-2 4.5-4.5 4.5" fill="#f18a00"/><path d="m423.7 60.7c-2.5 0-4.5-2-4.5-4.5s2-4.5 4.5-4.5 4.5 2 4.5 4.5-2.1 4.5-4.5 4.5" fill="#f18a00"/><path d="m375.7 64.9c-2 0-3.6-1.6-3.6-3.6s1.6-3.6 3.6-3.6 3.6 1.6 3.6 3.6-1.6 3.6-3.6 3.6" fill="#f18a00"/><path d="m388.3 71.9c-2.4 0-4.3-1.9-4.3-4.3s1.9-4.3 4.3-4.3 4.3 1.9 4.3 4.3-1.9 4.3-4.3 4.3" fill="#f18a00"/><path d="m454.9 29c2.5 0 4.5 2 4.5 4.5s-2 4.5-4.5 4.5-4.5-2-4.5-4.5 2-4.5 4.5-4.5" fill="#f18a00"/><path d="m462.2 39.2c2.5 0 4.5 2 4.5 4.5s-2 4.5-4.5 4.5-4.5-2-4.5-4.5 2-4.5 4.5-4.5" fill="#f18a00"/><path d="m451.1 86.2c2.9 0 5.3-2.4 5.3-5.3s-2.4-5.3-5.3-5.3-5.3 2.4-5.3 5.3 2.4 5.3 5.3 5.3" fill="#f18a00"/><path d="m482 78.8c2.7 0 4.9-2.2 4.9-4.9s-2.2-4.9-4.9-4.9-4.9 2.2-4.9 4.9 2.2 4.9 4.9 4.9" fill="#f18a00"/><path d="m466.1 82.1c2.9 0 5.3-2.4 5.3-5.3s-2.4-5.3-5.3-5.3-5.3 2.4-5.3 5.3c0 3 2.4 5.3 5.3 5.3" fill="#f18a00"/><path d="m454.9 70.8c2.5 0 4.5-2 4.5-4.5s-2-4.5-4.5-4.5-4.5 2-4.5 4.5 2 4.5 4.5 4.5" fill="#f18a00"/><path d="m462.2 60.7c2.5 0 4.5-2 4.5-4.5s-2-4.5-4.5-4.5-4.5 2-4.5 4.5 2 4.5 4.5 4.5" fill="#f18a00"/><path d="m510.2 64.9c2 0 3.6-1.6 3.6-3.6s-1.6-3.6-3.6-3.6-3.6 1.6-3.6 3.6 1.6 3.6 3.6 3.6" fill="#f18a00"/><path d="m497.6 71.9c2.4 0 4.3-1.9 4.3-4.3s-1.9-4.3-4.3-4.3-4.3 1.9-4.3 4.3 1.9 4.3 4.3 4.3" fill="#f18a00"/><g fill="#006937"><path d="m411 44.9c-2.8 0-5 2.3-5 5 0 2.8 2.3 5.1 5 5.1 2.8 0 5-2.3 5-5.1s-2.3-5-5-5"/><path d="m397.7 45.5c-2.4 0-4.4 2-4.4 4.4s2 4.4 4.4 4.4 4.4-2 4.4-4.4-2-4.4-4.4-4.4"/><path d="m375.3 46.5c-1.9 0-3.4 1.5-3.4 3.4s1.5 3.4 3.4 3.4 3.4-1.5 3.4-3.4-1.5-3.4-3.4-3.4"/><path d="m364.8 46.7c-1.8 0-3.2 1.4-3.2 3.2s1.4 3.2 3.2 3.2 3.2-1.4 3.2-3.2c0-1.7-1.4-3.2-3.2-3.2"/><path d="m442.9.9c-2.9 0-5.3 2.4-5.3 5.3s2.4 5.3 5.3 5.3 5.3-2.4 5.3-5.3-2.3-5.3-5.3-5.3"/><path d="m434.8 13.7c-2.9 0-5.3 2.4-5.3 5.3s2.4 5.3 5.3 5.3 5.3-2.4 5.3-5.3c0-3-2.4-5.3-5.3-5.3"/><path d="m403.9 21.1c-2.7 0-4.9 2.2-4.9 4.9s2.2 4.9 4.9 4.9 4.9-2.2 4.9-4.9-2.2-4.9-4.9-4.9"/><path d="m399.4 33.6c-2.5 0-4.6 2-4.6 4.6 0 2.5 2 4.6 4.6 4.6 2.5 0 4.6-2 4.6-4.6-.1-2.5-2.1-4.6-4.6-4.6"/><path d="m392.2 14.2c-2.7 0-4.9 2.2-4.9 4.9s2.2 4.9 4.9 4.9 4.9-2.2 4.9-4.9-2.2-4.9-4.9-4.9"/><path d="m419.8 17.7c-2.9 0-5.3 2.4-5.3 5.3s2.4 5.3 5.3 5.3 5.3-2.4 5.3-5.3-2.4-5.3-5.3-5.3"/><path d="m413.5 30.8c-2.8 0-5.1 2.3-5.1 5.1s2.3 5.1 5.1 5.1 5.1-2.3 5.1-5.1-2.3-5.1-5.1-5.1"/><path d="m425.5 2.7c-2.9 0-5.3 2.4-5.3 5.3s2.4 5.3 5.3 5.3 5.3-2.4 5.3-5.3c-.1-2.9-2.4-5.3-5.3-5.3"/><path d="m408.5 7.3c-2.9 0-5.3 2.4-5.3 5.3s2.4 5.3 5.3 5.3 5.3-2.4 5.3-5.3c-.1-2.9-2.4-5.3-5.3-5.3"/><path d="m375.7 35c-2 0-3.6 1.6-3.6 3.6s1.6 3.6 3.6 3.6 3.6-1.6 3.6-3.6-1.6-3.6-3.6-3.6"/><path d="m386.3 40.3c-2.1 0-3.8 1.7-3.8 3.8s1.7 3.8 3.8 3.8 3.8-1.7 3.8-3.8-1.7-3.8-3.8-3.8"/><path d="m364.8 32.2c-1.8 0-3.2 1.4-3.2 3.2s1.4 3.2 3.2 3.2 3.2-1.4 3.2-3.2-1.4-3.2-3.2-3.2"/><path d="m388.3 27.9c-2.4 0-4.3 1.9-4.3 4.3s1.9 4.3 4.3 4.3 4.3-1.9 4.3-4.3c0-2.3-1.9-4.3-4.3-4.3"/><path d="m377.5 22.6c-2.2 0-4 1.8-4 4s1.8 4 4 4 4-1.8 4-4-1.8-4-4-4"/><path d="m442.9 98.9c-2.9 0-5.3-2.4-5.3-5.3s2.4-5.3 5.3-5.3 5.3 2.4 5.3 5.3c0 3-2.3 5.3-5.3 5.3"/><path d="m399.4 66.2c-2.5 0-4.6-2-4.6-4.6 0-2.5 2-4.6 4.6-4.6 2.5 0 4.6 2 4.6 4.6-.1 2.6-2.1 4.6-4.6 4.6"/><path d="m392.2 85.7c-2.7 0-4.9-2.2-4.9-4.9s2.2-4.9 4.9-4.9 4.9 2.2 4.9 4.9-2.2 4.9-4.9 4.9"/><path d="m413.5 69c-2.8 0-5.1-2.3-5.1-5.1s2.3-5.1 5.1-5.1 5.1 2.3 5.1 5.1-2.3 5.1-5.1 5.1"/><path d="m425.5 97.2c-2.9 0-5.3-2.4-5.3-5.3s2.4-5.3 5.3-5.3 5.3 2.4 5.3 5.3c-.1 2.9-2.4 5.3-5.3 5.3"/><path d="m408.5 92.5c-2.9 0-5.3-2.4-5.3-5.3s2.4-5.3 5.3-5.3 5.3 2.4 5.3 5.3c-.1 3-2.4 5.3-5.3 5.3"/><path d="m386.3 59.5c-2.1 0-3.8-1.7-3.8-3.8s1.7-3.8 3.8-3.8 3.8 1.7 3.8 3.8-1.7 3.8-3.8 3.8"/><path d="m364.8 67.7c-1.8 0-3.2-1.4-3.2-3.2s1.4-3.2 3.2-3.2 3.2 1.4 3.2 3.2-1.4 3.2-3.2 3.2"/><path d="m377.5 77.3c-2.2 0-4-1.8-4-4s1.8-4 4-4 4 1.8 4 4-1.8 4-4 4"/><path d="m474.9 44.9c2.8 0 5.1 2.3 5.1 5 0 2.8-2.3 5.1-5.1 5.1s-5-2.3-5-5.1 2.2-5 5-5"/><path d="m488.2 45.5c2.4 0 4.4 2 4.4 4.4s-2 4.4-4.4 4.4-4.4-2-4.4-4.4 2-4.4 4.4-4.4"/><path d="m510.6 46.5c1.9 0 3.4 1.5 3.4 3.4s-1.5 3.4-3.4 3.4-3.4-1.5-3.4-3.4c-.1-1.9 1.5-3.4 3.4-3.4"/><path d="m521.1 46.7c1.8 0 3.2 1.4 3.2 3.2s-1.4 3.2-3.2 3.2-3.2-1.4-3.2-3.2c0-1.7 1.4-3.2 3.2-3.2"/><path d="m451.1 13.7c2.9 0 5.3 2.4 5.3 5.3s-2.4 5.3-5.3 5.3-5.3-2.4-5.3-5.3c0-3 2.4-5.3 5.3-5.3"/><path d="m482 21.1c2.7 0 4.9 2.2 4.9 4.9s-2.2 4.9-4.9 4.9-4.9-2.2-4.9-4.9 2.2-4.9 4.9-4.9"/><path d="m486.5 33.6c2.5 0 4.6 2 4.6 4.6 0 2.5-2 4.6-4.6 4.6-2.5 0-4.6-2-4.6-4.6.1-2.5 2.1-4.6 4.6-4.6"/><path d="m493.7 14.2c2.7 0 4.9 2.2 4.9 4.9s-2.2 4.9-4.9 4.9-4.9-2.2-4.9-4.9 2.2-4.9 4.9-4.9"/><path d="m466.1 17.7c2.9 0 5.3 2.4 5.3 5.3s-2.4 5.3-5.3 5.3-5.3-2.4-5.3-5.3 2.4-5.3 5.3-5.3"/><path d="m472.4 30.8c2.8 0 5.1 2.3 5.1 5.1s-2.3 5.1-5.1 5.1-5.1-2.3-5.1-5.1 2.3-5.1 5.1-5.1"/><path d="m460.4 2.7c2.9 0 5.3 2.4 5.3 5.3s-2.4 5.3-5.3 5.3-5.3-2.4-5.3-5.3 2.4-5.3 5.3-5.3"/><path d="m477.4 7.3c2.9 0 5.3 2.4 5.3 5.3s-2.4 5.3-5.3 5.3-5.3-2.4-5.3-5.3 2.4-5.3 5.3-5.3"/><path d="m510.2 35c2 0 3.6 1.6 3.6 3.6s-1.6 3.6-3.6 3.6-3.6-1.6-3.6-3.6 1.6-3.6 3.6-3.6"/><path d="m499.6 40.3c2.1 0 3.8 1.7 3.8 3.8s-1.7 3.8-3.8 3.8-3.8-1.7-3.8-3.8 1.7-3.8 3.8-3.8"/><path d="m521.1 32.2c1.8 0 3.2 1.4 3.2 3.2s-1.4 3.2-3.2 3.2-3.2-1.4-3.2-3.2 1.4-3.2 3.2-3.2"/><path d="m497.6 27.9c2.4 0 4.3 1.9 4.3 4.3s-1.9 4.3-4.3 4.3-4.3-1.9-4.3-4.3c0-2.3 1.9-4.3 4.3-4.3"/><path d="m508.4 22.6c2.2 0 4 1.8 4 4s-1.8 4-4 4-4-1.8-4-4 1.8-4 4-4"/><path d="m486.5 66.2c2.5 0 4.6-2 4.6-4.6 0-2.5-2-4.6-4.6-4.6-2.5 0-4.6 2-4.6 4.6.1 2.6 2.1 4.6 4.6 4.6"/><path d="m493.7 85.7c2.7 0 4.9-2.2 4.9-4.9s-2.2-4.9-4.9-4.9-4.9 2.2-4.9 4.9 2.2 4.9 4.9 4.9"/><path d="m472.4 69c2.8 0 5.1-2.3 5.1-5.1s-2.3-5.1-5.1-5.1-5.1 2.3-5.1 5.1 2.3 5.1 5.1 5.1"/><path d="m460.4 97.2c2.9 0 5.3-2.4 5.3-5.3s-2.4-5.3-5.3-5.3-5.3 2.4-5.3 5.3 2.4 5.3 5.3 5.3"/><path d="m477.4 92.5c2.9 0 5.3-2.4 5.3-5.3s-2.4-5.3-5.3-5.3-5.3 2.4-5.3 5.3c0 3 2.4 5.3 5.3 5.3"/><path d="m499.6 59.5c2.1 0 3.8-1.7 3.8-3.8s-1.7-3.8-3.8-3.8-3.8 1.7-3.8 3.8 1.7 3.8 3.8 3.8"/><path d="m521.1 67.7c1.8 0 3.2-1.4 3.2-3.2s-1.4-3.2-3.2-3.2-3.2 1.4-3.2 3.2 1.4 3.2 3.2 3.2"/><path d="m508.4 77.3c2.2 0 4-1.8 4-4s-1.8-4-4-4-4 1.8-4 4 1.8 4 4 4"/><path d="m65.8 38.8c-6.5.1-12.1 1.1-15.5 2.2s-4.8 2.1-4.8 5.4v33.6c0 .7.5 1.2 1.2 1.2h6.6c.7 0 1.2-.5 1.2-1.2v-32.9c3-.8 7.2-1.3 12.1-1.3.9 0 1.1-.6 1.1-1.2v-4.5c-.1-1.2-1-1.3-1.9-1.3z"/><path d="m108.8 75.6c-.2-.6-.5-.7-.9-.7-.9.1-1.7.3-2.9.3-1.6 0-3.3-.6-3.3-3.4v-48.8c0-.7-.4-1.2-1-1.2h-.3l-6.5 1.3c-.8.2-1.2.5-1.2 1.3v47.9c0 6.2 3.5 9.5 9.7 9.5 3.5 0 5.7-.6 6.5-1 .5-.2.7-.8.6-1.2z"/><path d="m131.7 75.6c-.2-.6-.5-.7-.9-.7-.9.1-1.7.3-2.9.3-1.6 0-3.3-.6-3.3-3.4v-48.8c0-.7-.4-1.2-1-1.2h-.3l-6.5 1.3c-.8.2-1.2.5-1.2 1.3v47.9c0 6.2 3.5 9.5 9.7 9.5 3.5 0 5.7-.6 6.5-1 .5-.2.7-.8.6-1.2z"/><path d="m154.2 38.7c-15.5 0-19.1 7.6-19.1 21.8 0 15.1 5.5 21.6 21 21.6 5.8 0 11.1-1.3 14-2.4.5-.2.9-.6.9-1.1 0-.1 0-.2-.1-.5l-.8-3.5c-.2-.8-.6-.9-1-.9-.1 0-.3 0-.6.1-3.3.9-6.8 1.9-11.3 1.9-4.7 0-8-.7-10.2-2.8-1.9-1.8-2.8-4-2.9-7.9h27.4c.9 0 1.3-.8 1.3-1.5.1-1.2.1-2.8.1-3.8 0-6.2-.7-11.1-3.2-14.7-2.6-4.1-7.4-6.3-15.5-6.3zm-10 20c.1-2.6.1-5.2.7-7.6 1-4.4 3.5-6 9.3-6 5.3 0 7.9 1.5 9.1 6.2.6 2.4.7 4.8.7 7.5h-19.8z"/><path d="m197.2 75.6c-.2-.6-.5-.7-.9-.7-.9.1-1.7.3-2.9.3-1.6 0-3.3-.6-3.3-3.4v-48.8c0-.7-.4-1.2-1-1.2h-.3l-6.5 1.3c-.8.2-1.2.5-1.2 1.3v47.9c0 6.2 3.5 9.5 9.7 9.5 3.5 0 5.7-.6 6.5-1 .5-.2.7-.8.6-1.2z"/><path d="m234.3 40.8c-2.4-1.3-6.2-2.1-11.7-2.1-7.7 0-14.7 1.9-17 2.6-.5.2-1 .6-.9 1.3l.9 4.3c.2.6.6.7.9.7.1 0 .2 0 .6-.1 2.7-.6 8.1-2.2 13.8-2.2 3.1 0 5.1.2 6.5.8 2.3.9 2.4 2.7 2.4 5v2.9l-14.4 2.4c-6.9 1.2-13.1 2-13.1 12.4 0 12.6 10.8 13.2 18.7 13.2 4.3 0 8-.5 10.6-1.1 5.4-1.3 7-2.4 7-8.2v-21.7c.2-4.2-.2-7.9-4.3-10.2zm-4.4 33.9c-2.3.8-5.3 1.3-8.5 1.3-4.3 0-9.8-.5-9.8-7.3 0-5.4 3.1-5.8 6.3-6.4l12-2z"/><path d="m268.6 38.7c-5 0-12.1 1-16.2 2.2-4.3 1.3-5.3 2.5-5.3 5.5v33.5c0 .7.6 1.2 1.3 1.2h6.5c.7 0 1.2-.5 1.2-1.2v-33.1c1.2-.3 6.5-1.7 11.7-1.7 4.7 0 6.5 1.6 6.5 6.5v28.3c0 .7.5 1.2 1.3 1.2h6.5c.7 0 1.2-.5 1.2-1.2v-29.5c-.1-9-5.1-11.7-14.7-11.7z"/><path d="m326.6 21.8-6.4 1.3c-.8.2-1.2.6-1.2 1.4v15.5c-2.1-.5-5.9-1.3-10.6-1.3-14 0-17.8 7.4-17.8 21.8 0 15.6 4.4 21.6 19.8 21.6 5.6 0 9.6-.9 12.7-1.7 4.7-1.3 4.9-3.7 4.9-6.2v-51.2c-.1-.7-.5-1.3-1.4-1.2zm-7.6 52.8c-.8.2-4.4 1.1-8.5 1.1-7.2 0-10.8-1.5-10.8-15.4 0-13.2 3.1-15.1 10.6-15.1 3.9 0 7.9.9 8.8 1.1v28.3z"/><path d="m81.9 40.6h-6.4c-.7 0-1.2.5-1.2 1.1v38.3c0 .7.5 1.2 1.2 1.2h6.4c.7 0 1.2-.5 1.2-1.2v-38.3c0-.6-.5-1.1-1.2-1.1z"/><path d="m81.9 24.3-6.4 1.2c-.8.2-1.2.5-1.2 1.4v6c0 .7.5 1.2 1.2 1.2h6.5c.7 0 1.2-.5 1.2-1.2v-7.5c0-.6-.4-1.2-1.3-1.1z"/><path d="m21.1 38.7c-4.2 0-9.2 1.2-11.4 1.8v-17.5c0-.7-.4-1.3-1.3-1.2l-6.5 1.3c-.8.2-1.2.6-1.2 1.4v49.3c0 3.2.3 5.2 4.4 6.5 2.8.9 8.1 1.8 14 1.8 15.2 0 19.1-6.9 19.1-22.1-.1-15.2-4.4-21.3-17.1-21.3zm-2.6 37.1c-4.6 0-8-.9-8.8-1.1v-28c1.1-.3 6.1-1.5 9.7-1.5 7.6 0 9.5 3 9.5 15.1.1 12.1-2.5 15.5-10.4 15.5z"/></g></svg>