<svg height="121.72" viewBox="0 0 487.01 121.72" width="487.01" xmlns="http://www.w3.org/2000/svg" xmlns:xlink="http://www.w3.org/1999/xlink"><clipPath id="a" transform="translate(-5.4 -70.37)"><path d="m-29-14h554.73v392h-554.73z"/></clipPath><g clip-path="url(#a)"><g clip-path="url(#a)"><path d="m13.27 155.3c-2.93-1.81-8.81-18.7-1.21-42.55 1.34-4.23 34.93-4.93 44.62-.53-.37-2.81-.69-5.48-.88-8a2.59 2.59 0 0 0 -2.52-2.58c-5.45.9-11.87.28-18.09-.44.07-5.4-.62-10.74-1-16.12-.44-6.1-.1-7.73-.17-13.83 0-.58-1.76-.24-1.75.46 0 5.61-.06 6.55.08 12.14.13 5.75 1.09 11.41 1.08 17.15-10.71-1.23-20.54-2.29-23.51 4.41-7.3 15.81-5.21 53.58 2.42 55.93a88.33 88.33 0 0 0 21.38 3.22c-.27 5-.26 10 0 15 .19 4.79-.59 7.46.59 12.16.18.74 1.94.27 1.76-.47-1.23-4.86-.45-8.52-.66-13.57-.18-4.35-.13-8.7.11-13 7.76.11 15.11-.81 19.43-3.26 1.84-1 4.43-2.73 2.3-5.08-1.91-.94-39.19 2.57-43.93-1m96.88-23.87c-2.83-4.4-11.56-4.06-21.24-2.69 0-1-.13-1.88-.13-2.82 6.72-1 12.36-2.53 13.82-3.72 2.14-1.71 2.82-14.62.91-21.67-.56-1.82-7.56-3.39-15.37-3.76a.33.33 0 0 0 0-.14 9 9 0 0 1 -.47-2.19 26.06 26.06 0 0 1 0-5.07c.08-.77.52-2.89.8-5.17.63-5.18 0-8-.07-13.25 0-1-1.79-.71-1.77.13.11 6.95.94 8.44 0 13.79-.72 4.13-1.21 7.5-.21 11.83-6.23-.17-12.72.47-16.76 2.32-6.63 3-.94 15.17-2.49 24.5-.24 1.37.52 3.32 1.81 3.44a84.12 84.12 0 0 0 17.76-.77c0 .94.18 1.87.18 2.82-6.77 1-13.83 2.48-19.53 3.08a1.88 1.88 0 0 0 -1.96 1.87c2.26 10.88-4.51 27.5 3.8 30.69 4.63 1.86 11.69 2.65 18.69 2.6a95 95 0 0 0 1 13.43c.53 4.27.23 6-.07 10.32 0 .34 1.76.2 1.79-.34a47.48 47.48 0 0 0 .07-10.32 117.83 117.83 0 0 1 -1-13.13c10.49-.27 20.41-2.42 21.34-5.59 2.39-8.26 3.06-24-.95-30.21m-36.86-8.28c-3.59 0-2.33-22.4.75-22.91 0 0 22.85.16 24.33.78l1.91 18.21s0 1.47-2.13 1.49c-7.34.67-16.83 2.43-24.86 2.43m33.23 37.21c-1.29 2.13-13.81 6.69-31.83 1.86-3.72-1-4.31-26.38 1-26.95a166.43 166.43 0 0 1 27.65-.91c2 0 2.26 1.33 2.26 1.33 2.25 6.85 3.58 21.13 1 24.67" transform="translate(-5.4 -70.37)"/><path d="m143.78 120.7c-7.15 0-12.15-4.59-12.15-11.17 0-6.27 5.09-11 11.85-11a12.77 12.77 0 0 1 7.13 2l.14.08-.08.14-1.59 2.55-.09.15-.13-.1a6.89 6.89 0 0 0 -2.08-1.21 10.9 10.9 0 0 0 -3.39-.54c-4.67 0-7.92 3.17-7.92 7.71a8.64 8.64 0 0 0 2.47 6.16c1.58 1.54 3.46 2.16 6.51 2.16a8.49 8.49 0 0 0 4.6-1.09l.15-.07.06.15 1 2.47.06.15h-.15a16.07 16.07 0 0 1 -6.37 1.37" transform="translate(-5.4 -70.37)"/><path d="m184.98 50.03h-3.29v-9.22h-13.18v9.22h-3.95v-21.08h3.95v8.57h13.18v-8.57h3.29z"/><path d="m229.92 120.4h-4.18v-.07l-5.5-8.49h-2.8v8.56h-4v-21.08h7.56c5.16 0 8 2.18 8 6.14a6.12 6.12 0 0 1 -4.84 6.33l5.7 8.67.15.24m-12.61-12.16h3.14c2.16 0 2.55-.1 3.41-.83a3.19 3.19 0 0 0 1.09-2.57 3.1 3.1 0 0 0 -1.21-2.64c-.67-.5-.92-.55-3.29-.55h-3.14z" transform="translate(-5.4 -70.37)"/><path d="m244.28 28.95h3.95v21.08h-3.95z"/><path d="m281.35 120.7a13.52 13.52 0 0 1 -4.35-.7 18.91 18.91 0 0 1 -3-1.6l-.12-.08.06-.12 1.51-2.87.08-.17.14.12a12.65 12.65 0 0 0 2.71 1.66 9.25 9.25 0 0 0 3.43.69c2.36 0 3.76-1 3.76-2.67 0-1.36-.66-2.23-2.29-3l-3.84-1.85c-3.25-1.56-4.76-3.37-4.76-5.71 0-3.57 3.06-5.87 7.82-5.87a13.76 13.76 0 0 1 4 .54 11.54 11.54 0 0 1 2.85 1.24l.13.07v.11l-1.2 2.79-.07.17-.15-.1a8.49 8.49 0 0 0 -2.6-1.26 10.57 10.57 0 0 0 -2.92-.44c-2.61 0-4.17.92-4.17 2.45a2 2 0 0 0 .24 1c.6.89 1.36 1.31 5.37 3.25s5.34 3.46 5.34 6.14c0 3.85-2.94 6.14-7.84 6.14" transform="translate(-5.4 -70.37)"/><path d="m311.48 50.03h-3.3v-18.44h-7.9v-3.3h18.45v3.3h-7.25z"/><path d="m337.83 28.95h3.95v21.08h-3.95z"/><path d="m386.82 120.4h-3.46l-.05-.08-2.4-5.85h-9l-2.36 5.85-.05.08h-3.5l.08-.2 8.53-21.44v-.1h3.48v.1l8.53 21.44zm-13.77-9.22h6.75l-3.35-8.87z" transform="translate(-5.4 -70.37)"/><path d="m425.59 120.4h-3.59l-12-15.27a12.09 12.09 0 0 1 -.83-1.23v16.5h-3.3v-21.08h4.07l11.85 15.05a3.33 3.33 0 0 1 .55.94v-16h3.3v21.09" transform="translate(-5.4 -70.37)"/><path d="m443.24 28.95h3.95v21.08h-3.95z"/><path d="m492.41 120.4h-3.41v-.08l-2.41-5.85h-9l-2.37 5.85v.08h-3.51l.08-.2 8.54-21.44v-.1h3.49v.1l8.53 21.44zm-13.76-9.22h6.74l-3.39-8.88z" transform="translate(-5.4 -70.37)"/><path d="m168.65 167.18h-9.23v-21.74h8c4.68 0 7.07 1.83 7.07 5.45a5 5 0 0 1 -3.21 4.87 5.39 5.39 0 0 1 4.19 5.44c0 3.52-2.83 6-6.88 6m-5.25-3.3h3.86c2.29 0 2.43 0 3.31-.48a3.42 3.42 0 0 0 .26-5.44 3.51 3.51 0 0 0 -1.84-.67h-5.59zm0-9.88h3.5c2.11 0 2.35-.05 3.11-.65a3 3 0 0 0 1.07-2.44c0-2.09-1-2.84-3.86-2.84h-3.82z" transform="translate(-5.4 -70.37)"/><path d="m204.09 96.81h-13.84v-21.74h13.84v3.29h-9.88v5.27h7.9v3.3h-7.9v6.59h9.88z"/><path d="m238.35 96.81h-13.84v-21.74h3.96v18.45h9.88z"/><path d="m264.7 96.81h-3.95v-9.75l-7.6-11.75-.15-.24h4.65l.04-.05 5.47 8.44 5.47-8.44.03.05h4.29l-.16.12-8.75 11.71.66 9.42z"/><path d="m302.43 167.24a13.67 13.67 0 0 1 -4.41-.67 18.35 18.35 0 0 1 -3-1.61l-.13-.09.07-.13 1.5-2.89.08-.15.16.1a11.7 11.7 0 0 0 2.72 1.68 9 9 0 0 0 3.44.69c2.38 0 3.8-1 3.8-2.69 0-1.36-.67-2.23-2.31-3l-3.86-1.86c-3.28-1.58-4.79-3.39-4.79-5.74 0-3.59 3.09-5.93 7.87-5.93a14.38 14.38 0 0 1 4 .54 11.82 11.82 0 0 1 2.87 1.26l.12.07v.13l-1.2 2.79-.07.17-.16-.11a8.65 8.65 0 0 0 -2.62-1.25 10.27 10.27 0 0 0 -2.93-.44c-2.63 0-4.2.92-4.2 2.47a1.9 1.9 0 0 0 .25 1c.6.9 1.36 1.33 5.39 3.27s5.37 3.49 5.37 6.18c0 3.87-2.94 6.19-7.87 6.19" transform="translate(-5.4 -70.37)"/><path d="m351.14 167.18h-3.53l-12.1-15.38a10.11 10.11 0 0 1 -.84-1.22v16.6h-3.29v-21.74h4.08l11.83 15.15a4.12 4.12 0 0 1 .56 1v-16.15h3.29z" transform="translate(-5.4 -70.37)"/><path d="m368.8 75.07h3.95v21.74h-3.95z"/><path d="m421 167.18h-3.54l-12.1-15.38a7.54 7.54 0 0 1 -.83-1.22v16.6h-3.3v-21.74h4.08l11.84 15.15a3.78 3.78 0 0 1 .55 1v-16.15h3.3z" transform="translate(-5.4 -70.37)"/><path d="m454.4 167.55c-7.82 0-13.73-4.83-13.73-11.24s5.76-11.08 13.4-11.08a29.72 29.72 0 0 1 5.28.49 14.76 14.76 0 0 1 3.41 1.31l.14.07-.07.13-1.52 2.8-.07.16-.16-.09a14.36 14.36 0 0 0 -1.56-.81 16.48 16.48 0 0 0 -5.35-1c-5.33 0-9.36 3.38-9.36 7.85 0 4.74 4.37 8.31 10.17 8.31a26.54 26.54 0 0 0 4.21-.39v-6.76h3.95v8.94h-.13l-.35.1c-.64.18-1.15.32-1.51.4a35.58 35.58 0 0 1 -6.75.79" transform="translate(-5.4 -70.37)"/></g></g></svg>