<svg fill="none" height="33" viewBox="0 0 230 33" width="230" xmlns="http://www.w3.org/2000/svg"><g fill="#000"><path d="m0 0h18.8303v4.79908h-13.28671v8.16942h11.23021v4.7991h-11.23021v9.4516h13.75171v4.7991h-19.2953z"/><path d="m23.3192 0h5.6866l9.746 18.0057 3.201 6.7957h.1967c-.2325-3.2788-.7153-7.3452-.7153-10.917v-13.8844h5.3111v32h-5.6866l-9.7639-18.0057-3.201-6.79567h-.1967c.2325 3.37037.7153 7.23527.7153 10.80707v13.9943h-5.3111v-32z"/><path d="m52.271 0h5.5436v14.5255h.143l11.123-14.5255h6.1695l-9.603 12.474 11.2303 19.526h-6.1158l-8.4585-15.075-4.4885 5.7333v9.3417h-5.5436z"/><path d="m78.397 0h5.5436v27.2009h12.9827v4.7991h-18.5263z"/><path d="m99.9814 0h18.8306v4.79908h-13.287v8.16942h11.23v4.7991h-11.23v9.4516h13.752v4.7991h-19.2956z"/><path d="m140.36 32-6.741-12.5289h-4.775v12.5289h-5.544v-32h10.551c6.491 0 11.463 2.34459 11.463 9.48827 0 4.89063-2.486 7.82143-6.206 9.15853l7.457 13.3532zm-11.516-17.0349h4.435c4.256 0 6.598-1.8684 6.598-5.47683 0-3.66343-2.342-4.94563-6.598-4.94563h-4.435z"/><path d="m149.516 0h18.83v4.79908h-13.286v8.16942h11.23v4.7991h-11.23v9.4516h13.751v4.7991h-19.295z"/></g><path d="m172.835 0h5.544v27.2009h13v4.7991h-18.544z" fill="#00a482"/><path d="m194.437 0h5.544v32h-5.544z" fill="#00a482"/><path d="m203.271 0h5.883l4.399 16.1007c1.002 3.6268 1.717 6.7591 2.772 10.4225h.197c1.055-3.6634 1.77-6.7957 2.718-10.4225l4.328-16.1007h5.686l-9.692 32h-6.545z" fill="#00a482"/></svg>