<svg height="27" viewBox="0 0 233.997 27" width="233.997" xmlns="http://www.w3.org/2000/svg"><g fill="#aab7c4"><path d="m689.3 253.074v-25.348h3.137v25.349zm13.465 0-10.1-12.751 9.946-12.623h3.6l-9.946 12.394 10.379 12.98z" transform="translate(-553.816 -226.202)"/><path d="m778.441 253.074-7.038-10.94h-3.366v10.94h-3.137v-25.374h7.7c3.06 0 4.514.459 5.967 1.887a7.017 7.017 0 0 1 1.989 4.947 7.327 7.327 0 0 1 -2.219 5.253 6.657 6.657 0 0 1 -3.825 1.913l7.549 11.4h-3.621zm-2.627-21.983c-.765-.612-1.428-.74-3.672-.74h-4.106v9.155h4.106c3.341 0 5.049-1.683 5.049-4.947a4.113 4.113 0 0 0 -1.376-3.467z" transform="translate(-610.137 -226.202)"/><path d="m858.187 253.474-2.55-7.293h-10l-2.55 7.293h-3.287l9.181-25.374h3.341l9.155 25.374zm-7.523-21.421-4.055 11.323h8.059z" transform="translate(-665.936 -226.5)"/><path d="m935.662 230.452v8.7h9.181v2.678h-9.181v11.348h-3.162v-25.378h14.255v2.652z" transform="translate(-734.996 -226.276)"/><path d="m1008.778 230.352v22.722h-3.137v-22.722h-8.441v-2.652h19.993v2.652z" transform="translate(-783.196 -226.202)"/></g><path d="m299.3 228.1h8.212v25.349h-8.212z" fill="#005896" transform="translate(-263.272 -226.5)"/><path d="m340.254 243.77.459.357a9.425 9.425 0 0 0 5.61 2.27c.893 0 2.3-.357 2.3-1.479s-1.173-1.224-1.989-1.377l-1.811-.332c-3.519-.612-6.452-2.678-6.452-6.554 0-5.865 5.355-9.155 10.736-9.155a14.624 14.624 0 0 1 7.829 2.168l-2.423 6.324a9.36 9.36 0 0 0 -5.228-1.862c-.791 0-1.938.306-1.938 1.3 0 .918 1.122 1.046 1.811 1.224l2.04.459c3.8.842 6.554 2.882 6.554 7.089 0 5.916-5.381 8.824-10.736 8.824a22.018 22.018 0 0 1 -9.512-2.27z" fill="#005896" transform="translate(-291.73 -226.053)"/><path d="m420.826 228.1h18.82v8.237l-5.279-.255v17.392h-8.339v-17.366l-5.228.23z" fill="#005896" transform="translate(-353.787 -226.5)"/><path d="m496.239 253.549h-8.339l7.931-25.349h8.977l8.212 25.374h-8.237l-.842-3.162h-6.962zm6.069-9.181-1.071-4.463c-.281-1.071-.434-2.193-.612-3.264h-.331l-1.683 7.727z" fill="#005896" transform="translate(-403.776 -226.574)"/><path d="m590.4 228.2h7.625c8.518 0 14.357 3.443 14.357 12.776 0 7.523-5 12.6-12.445 12.6h-9.537zm8.263 17.749h.561c3.06 0 5.406-1.4 5.406-4.743 0-3.57-2.04-5.075-5.406-5.075h-.561z" fill="#005896" transform="translate(-480.136 -226.574)"/><path d="m180.843 225.746a13.362 13.362 0 1 1 -18.9 0 13.345 13.345 0 0 1 18.9 0z" fill="#00a458" transform="translate(-158.025 -221.825)"/><path d="m191.646 285.9-23.946 4.718a5.989 5.989 0 0 0 .485.638l23.283-4.59c.051-.256.102-.511.178-.766z" fill="#fff" transform="translate(-165.232 -269.559)"/><path d="m189.209 260.8-24.609 9.92c.128.2.255.434.383.638l24.405-9.818a6.268 6.268 0 0 0 -.179-.74z" fill="#fff" transform="translate(-162.923 -250.86)"/><path d="m184.667 240.2-22.467 13.949c.1.23.2.434.306.663l22.62-14.051c-.126-.178-.28-.361-.459-.561z" fill="#fff" transform="translate(-161.135 -235.514)"/><path d="m177.643 225-17.443 16.372c.077.255.153.51.255.765l17.928-16.831c-.255-.106-.51-.206-.74-.306z" fill="#fff" transform="translate(-159.645 -224.19)"/></svg>