<svg enable-background="new 0 0 175.7 61.1" viewBox="0 0 175.7 61.1" xmlns="http://www.w3.org/2000/svg"><g clip-rule="evenodd" fill-rule="evenodd"><path d="m175.7 61.1h-175.7v-61.1h175.7z" fill="#023f88"/><path d="m84.2 24.9h-23v-4.9h23z" fill="#44c8f5"/><path d="m84.2 32.6h-23v-4.4h23z" fill="#ffcb05"/><path d="m84.2 41h-23v-5h23z" fill="#ed1c24"/><g fill="#fff"><path d="m16 20h9.9l7.3 13.6 7.3-13.6h9.9v21.1h-6.2v-15.2h-.1l-8.4 15.2h-4.9l-8.4-15.2h-.1v15.2h-6.3z"/><path d="m94.2 27.4c0-6.2 3.5-7.6 9.3-7.6h7.6c9.2 0 10.4 2 10.3 7.9h-6.5v-.6c0-1.5-1.1-1.9-3-1.9h-7c-3.4 0-4 1.6-4 4.2v2.3c0 3.1.6 4.2 3.7 4.2h6.9c2.9 0 3.8-.3 3.8-2.9h6.5v2c0 3.5-1.3 6.3-7.8 6.3h-10.4c-5.8 0-9.3-1.5-9.3-7.6v-6.3z"/><path d="m139.7 20h8.4l11.6 21h-7.2l-2-3.7h-13.1l-1.9 3.7h-7.2zm.2 12.8h8.3l-4.2-7.9z"/></g></g></svg>