<svg enable-background="new 0 0 200.9 37.2" viewBox="0 0 200.9 37.2" xmlns="http://www.w3.org/2000/svg"><path d="m162 1.2h9.2c5.7 0 9.8 3.7 9.8 9 0 3.7-2.2 6.5-4.8 7.8 3.3 1.2 6 4.3 6 8.6 0 5.5-4.3 9.9-10.2 9.9h-10zm9.5 15.7c3.9 0 6.8-2.9 6.8-6.7s-2.8-6.7-6.8-6.7h-7v13.4zm-.3 17.3c4.8 0 8.3-2.7 8.3-7.6s-3.7-7.4-8.4-7.4h-6.6v15z"/><path d="m189.5 1.3c1.2 0 2.1.9 2.1 2.1s-.9 2.1-2.1 2.1-2.1-.9-2.1-2.1 1-2.1 2.1-2.1zm-1.2 9h2.5v26.2h-2.5z"/><path d="m198.4 0h2.5v36.5h-2.5z"/><path d="m19.3 25.3 10.2-24.1h9.2v35.4h-6.8v-25.3l-9.2 22.3h-6.7l-9.2-22.3v25.3h-6.8v-35.4h9.2z"/><path d="m75.7 0h7v36.5h-7z"/><path d="m88.2 0h7v36.5h-7z"/><path d="m112.2 9.5c8.2 0 12.8 5.5 12.8 14.1 0 .5 0 1-.1 1.5h-18.6c.2 3.5 3 6.1 6.9 6.1 3.6 0 5.7-2.1 6.4-3.2l4.6 3.5c-1 1.9-4.5 5.8-11.1 5.8-8.5 0-13.9-5.9-13.9-13.8.1-8.1 5.5-14 13-14zm5.8 11c-.2-3.2-2.5-5.4-5.7-5.4-3.3 0-5.4 2.3-5.7 5.4z"/><path d="m143 16.5c-5.2 0-7.1 3.2-7.1 8.5v11.5h-7v-26.4h6.8v3.8c1.2-2.6 3.8-4.5 7.3-4.5z"/><path d="m55.4 30.8c-3.1-.9-5.2-3.6-5.2-7.4s2.1-6.6 5.2-7.5v-6.3c-7 .9-12.2 6.5-12.2 13.8s5 12.8 12.2 13.7z"/><path d="m59.6 9.6v6.3c3.1.9 5.1 3.8 5.1 7.5s-2.1 6.4-5.1 7.3v6.3c7.1-.9 12.1-6.4 12.1-13.6 0-7.3-5.1-12.8-12.1-13.8z"/></svg>