<svg enable-background="new 0 0 461 126.8" viewBox="0 0 461 126.8" xmlns="http://www.w3.org/2000/svg"><path d="m164.1 77.5h20.4l-10.2-34.4z" fill="none"/><path d="m78.8 72.3-41.6-64.2h-37.2v118.7h32l-1.2-74.7 46.8 74.7h32.2v-118.7h-32z"/><path d="m157.8 8.1-38.7 118.7h31.1l7.6-23.4h33.2l7.1 23.4h39.1l-39.1-118.7zm6.3 69.4 10.2-34.4 10.2 34.4z"/><path d="m246.6 126.8h35.5v-42.9h40.9v-26.6h-40.9v-21h50v-28.2h-85.5z"/><path d="m375.1 15.8 1.3 2c1.5-1.8 4-3.2 4-3.2-2.3-.4-5.3 1.2-5.3 1.2z" fill="none"/><path d="m450 61.5-16.4-10.1c-7.1-4.5-10.1-11-6.8-17 1.4-2.6 3.8-4.5 5.9-5 1.6-.4 2.9 0 3.8.5.8.4 1.6 1.2 1.9 1.8 1.4 3.1-2.6 3.9-3.2 7.5-.9 5.3 4.6 6.4 4.6 6.4s.2-1.2 1-2.4c6.6-9.8.5-14.2-.8-15.2-1.7-1.2-4.7-2.4-8.1-1.6-2.2.5-6 2.3-8.6 6.6-4.6 7.9-1.6 15.8 7.4 21.9l16 10.8c4.1 2.7 9.1 6 8.5 11.7-.3 3.1-1.4 4.4-3.8 5.7-3 1.6-8.4.4-12.8-1.9-14.4-7.5-27.8-21.1-29.5-32.8 6.9-17.7 5.9-29.6-2.2-39.4-8.3-10.1-23-9.6-24.4-8.2l-2.3 6.7c-4 2.2-7.1 6.2-7.1 6.2l-.6 2.3s-7.7 7.2-6.7 8.9 3.7 3.7 3.7 3.7 1.3-3.2 5.2-3.2c4.3 0 4.9 4.4 3.4 6.2s-5.9 2.2-5.9 2.2l3.8 4.6s1.1-1.5 4.1-4.2c1.8-1.6 3.8.5 2.3 2.3-1.5 1.7-6 7-9.2 12.6-5.7 10.1-3.1 17.4-.8 21.2-1.9 4.4-8 18-8.2 18.4-1.7 3-8 5.1-9.8 5.8 0 0-.7 2.6-.6 4.9v.1c0 .5.1 1.1.2 1.6.7 3 3.4 5.2 6.6 5.2 3.8 0 6.8-3.1 6.8-6.8 0-.9-.2-1.7-.5-2.5 1.3-1.4 17.6-18.4 17.8-18.6.5-.4 1.3-1.7 1.4-3.3v-2.5c0-.8.7-1.5 1.5-1.5s1.5.7 1.5 1.5v7.2c8.1.6 13.6 1.9 21.3 5.5l3-1.4c1.6 1.6 4.8 17 4.8 17s16.4 8.2 20.6 10.3c4.3 2.1 1.7 4.5 1 5.8-.8 1.3-3.2 3.6-3.2 3.6s-3.8-.2-8-1c-1.7 1.3-2.6 4.8-2.9 6.3h15.5c1.1-1.8 7.8-10.2 7.8-10.2.2-2.8-.9-7.4-4.6-13-3-4.6-3.9-9.1-4.6-13.5 7.6 2.4 13.8.2 17.1-2.7 1.8-1.6 3.3-3.9 3.9-6.4v-6c-1.3-6.2-6.7-10-10.8-12.6zm-73.6-43.7-1.3-2s3-1.5 5.3-1.2c.1 0-2.5 1.3-4 3.2z"/><path d="m415.6 101.5c-.5-2.6-.9-4.1-1.8-7.9-1.1-4.4-3.3-5.3-4.1-5.7-.6-.3-1.2-.6-1.8-.8-1 .8-4.4 6.6-1.5 13.1 1.3 2.8 3.2 9 3.7 11.6.9 4.4 0 5.2-1 6.3-1.3 1.4-3.2 2.5-3.2 2.5-.3 0-.6 0-.9 0-1.4-.1-4.5-.4-7.3-.9-1.6 1.4-2.6 4.6-2.9 6.2h15.4l9.6-10.8c.2-2 .2-4 .8-9.8l-3.5-1.8c-.8-.5-1.3-1.2-1.5-2z"/><path d="m375.9 92c1.1 2.2 1.7 4.7 1.7 7.4 0 9.4-7.6 16.9-16.9 16.9-9.4 0-16.9-7.6-16.9-16.9 0-9.4 7.6-16.9 16.9-16.9 1 0 2 .1 3 .3 1.3-3 4.1-9.2 4.1-9.2-2.3-.6-4.6-1-7.1-1-14.8 0-26.8 12-26.8 26.8 0 9.1 4.6 17.2 11.5 22 1 .7 2.1 1.4 3.3 1.9.1 0 .1.1.2.1.2.1.5.2.7.4.1 0 .1.1.2.1.2.1.5.2.7.3.1 0 .1.1.2.1.3.1.5.2.8.3h.1c1.2.4 2.4.8 3.7 1h.2c.1 0 .2 0 .3.1 1.6.3 3.2.4 4.8.4s3.2-.2 4.8-.4h.1c12.5-2.3 22-13.2 22-26.4 0-5.5-1.7-10.6-4.5-14.9 0 .2-4.8 5.1-7.1 7.6z"/><path d="m367.9 34.6c3.1-.5 3.3-4.7 8-5.9-5.6-.6-6.4 5.6-11.8 3.8.1.1 1.2 2.6 3.8 2.1z"/></svg>