<svg enable-background="new 0 0 210.5 107" viewBox="0 0 210.5 107" xmlns="http://www.w3.org/2000/svg"><path d="m125.7 38.7c6.5 4.7 13.9 10.8 29.8 10.8h48.2c2.7 0 2.7-3.5 0-3.5h-39.7c-9.5-2.4-15-11.7-20.4-20.8-5.8-9.8-11.3-19.1-21.4-19.1-8.1 0-14.5 7.7-20.2 18.1-1.1 1.5-2.1 3.2-3.1 4.9-1.2 1.6-2.4 3.3-3.5 5.2-1.2 1.4-2.3 2.9-3.5 4.5-1.9 1.8-3.7 3.8-5.6 5.8-5.4 5.8-10.9 11.7-17.3 14.6-.3.1-.5.3-.8.4-1.9.8-3.8 1.3-5.8 1.5h-1.1-.7-2.1c-8-.5-12.4-3.5-17.2-6.6-5.8-4.1-12.4-8.5-26.5-8.5h-7.1c-3.1 0-3.1 3.5 0 3.5h7.1c3.7 0 6.8.3 9.5.7 6.4 3.4 10.5 9.6 14.5 15.7 3.5 5.4 7.1 10.8 12.3 14.3 1.1.7 2.3 1.4 3.6 1.9 1.4.6 3 1 4.7 1.3.6.1 1.2.2 1.8.2.7.1 1.3.1 2 .1s1.3-.1 2-.2c.3 0 .5-.1.8-.1h.3v-.1c3-.7 5.8-2.5 8.3-5.1 7.1-7.2 12.9-20.3 18.5-33.1 1.2-2.7 2.4-5.5 3.6-8.2 3.9-3.3 7.9-5.5 12.3-5.5 7.4 0 11.7 3.8 16.7 7.3zm-51.7 38.8c-2.4 2.4-4.9 4-7.6 4.8-.1 0-.2 0-.2.1-.1 0-.2.1-.4.1v-.1.1c-.1 0-.3.1-.4.1-.7.1-1.3.2-2 .2s-1.4 0-2-.1c-.2 0-.5-.1-.7-.1-1.6-.2-3-.5-4.3-1-.5-.2-1-.4-1.4-.6-1.3-.6-2.5-1.3-3.6-2.1-4.6-3.3-8-8.4-11.5-13.6-2-3-4-6.1-6.3-8.8 2.1 2.2 3.9 4.6 5.7 7 3.5 4.6 7 9.2 12 12.1 1.1.7 2.3 1.2 3.6 1.7.2.1.3.1.5.2 1.6.5 3.4.9 5.3 1.1h.7c.5 0 .9.1 1.4.1.7 0 1.4-.1 2.1-.2.5-.1 1-.2 1.5-.4 2.5-.7 4.8-2 7-3.9.5-.4.9-.8 1.4-1.3 6.5-6.4 11.9-17.1 17.2-27.7.6-1.2 1.2-2.3 1.7-3.5-.4 1-.9 2-1.3 3-5.4 12.3-10.9 24.9-17.6 32-.3.3-.6.5-.8.8zm-.6-18.4c3.3-2.1 6.4-4.9 9.4-7.9-2.6 3.4-5.2 6.6-8 9.1-1.1 1-2.3 1.9-3.4 2.7-1.6 1.1-3.2 1.9-4.9 2.5-1.3.5-2.7.7-4.2.8-.2 0-.5 0-.7 0-.1 0-.1 0-.2 0-.2 0-.5 0-.7 0-2.1-.1-4.1-.3-5.8-.7-.8-.2-1.6-.5-2.4-.7-.4-.2-.8-.3-1.2-.5-3.9-1.7-6.9-4.3-9.9-7 3 1.9 6 3.6 9.9 4.6.2.1.4.1.6.1l3 .6c1.7.2 3.7.4 5.8.4h.3.4.2c1.7-.1 3.3-.3 4.9-.7 1.5-.4 3-1 4.5-1.8.7-.3 1.3-.7 1.9-1.1.1-.1.3-.3.5-.4zm48.9-51.9c9.4 0 14.8 9 20.5 18.6 4.9 8.3 10 16.8 18 20.3-10.1-2-15.8-10.2-21.3-18.2-5.6-8.2-11-15.9-20.5-15.9-4.4 0-8.3 2.3-11.9 5.9 4.5-6.5 9.4-10.7 15.2-10.7zm-57.7 69.9c-.6.1-1.2.2-1.9.2-.5 0-.9 0-1.4-.1-.2 0-.5 0-.7 0-2.1-.2-3.9-.6-5.6-1.2-.1 0-.1 0-.2-.1-1.3-.5-2.5-1.1-3.6-1.8-4.4-2.8-7.7-7-11-11.4-1.5-1.9-3-3.9-4.6-5.7 1.3 1.3 2.6 2.7 3.9 4.1 3.4 3.8 6.9 7.6 11.7 10 .9.5 1.9.8 2.9 1.2.2.1.5.2.7.2 1.8.5 3.7.8 5.8.9h.7.8c.5 0 1.1-.1 1.6-.1l2.6-.5c2.2-.6 4.2-1.7 6.1-3.2.8-.6 1.5-1.2 2.2-1.9 5.4-5 10.2-12.8 14.8-20.6-4.6 9.1-9.3 18.2-14.8 23.9-.5.6-1.1 1.1-1.7 1.6-2.1 1.9-4.3 3.3-6.7 4-.4.2-1 .4-1.6.5zm-24.8-18.5c3.3 2.9 6.7 5.9 11.4 7.8.6.2 1.1.4 1.7.6s1.2.4 1.9.5c1.8.4 3.7.7 5.8.7h.7.2c.4 0 .7 0 1.1-.1 1.3-.1 2.5-.3 3.8-.7 1.8-.5 3.6-1.4 5.3-2.5l3.1-2.3c4-3.3 7.6-7.9 11.1-12.7-3.5 5.8-7.2 11.4-11.1 15.4-.8.8-1.7 1.6-2.5 2.3-1.8 1.5-3.8 2.6-5.8 3.3-1 .3-2 .5-3 .6-.4 0-.9.1-1.3.1-.3 0-.5 0-.8 0-.2 0-.5 0-.7 0-2.1-.1-4.1-.5-5.8-1-.4-.1-.8-.2-1.1-.4-.9-.3-1.7-.7-2.5-1.1-4.3-2.1-7.5-5.5-10.7-9.1-1.2-1.3-2.4-2.6-3.6-3.9 1 .9 1.9 1.7 2.8 2.5zm95.5-28.1c-5.5-6.6-10.6-12.8-19.6-12.8-4 0-7.5 1.7-10.8 4.6 4.2-5.5 8.8-9.1 14-9.1 8.8 0 14 7.5 19.4 15.3 4.5 6.5 9.4 13.5 16.9 17-9.2-2.1-14.6-8.6-19.9-15zm13.8 14.5c-8.3-2.2-13.4-7.1-18-11.6-5.3-5.1-10.2-9.9-18.6-9.9-3.7 0-7.1 1.5-10.3 3.9 4.1-4.9 8.5-8.2 13.5-8.2 8.2 0 12.9 5.7 18.4 12.3 4.1 4.9 8.5 10.3 15 13.5zm-36.6-19.7c7.7 0 12.2 4.3 17.4 9.4 3.6 3.5 7.4 7.2 12.7 9.8-7-1.9-11.6-5.1-15.7-8.1-5-3.6-9.8-7.1-17.7-7.1-3.5 0-6.8 1.2-9.9 3.2 4.1-4.3 8.4-7.2 13.2-7.2z" fill="#0089c4"/><path d="m176.5 65.9v34.8h23.8c3.7 0 4.7-3.9 4.8-6v-.5h-21.8v-10.4h13.9c1.5 0 3-1.1 3-3.2s-1.5-3.2-3-3.2h-13.9v-9.3h17.2c3 0 4.9-2.2 4.9-6v-.5h-24.5c-3 0-4.4 1.3-4.4 4.3z"/><path d="m135.3 67.6v.5h14.7v32.5h7.3v-32.5h9.8c3 0 4.9-2.2 4.9-6v-.5h-31.8c-3.1 0-4.9 2.2-4.9 6z"/><path d="m124 66.6v21.4c-3.9-4.8-19.2-23.4-20-24.5-1.6-1.9-3.3-1.9-5.1-1.9h-1.2v39h6.8v-26.3l20 24.4c1.5 1.9 3.3 1.9 5.1 1.9h1.2v-39.1h-.5c-4 0-6.3 1.9-6.3 5.1z"/></svg>