<svg enable-background="new 0 0 264.3 52.5" viewBox="0 0 264.3 52.5" xmlns="http://www.w3.org/2000/svg"><path d="m49 26.5c0 3.3-.6 6.4-1.8 9.3s-3 5.6-5.3 7.9c-2.4 2.3-5 4.1-8 5.3s-6.1 1.8-9.3 1.8c-3.3 0-6.5-.6-9.4-1.9-3-1.2-5.6-3-7.9-5.3s-4.1-4.9-5.3-7.8c-1.4-2.8-2-5.9-2-9.3 0-3.3.6-6.4 1.8-9.4 1.2-2.9 3-5.6 5.3-7.9s5-4.1 8-5.2c3-1.2 6.1-1.8 9.4-1.8s6.4.6 9.4 1.8 5.6 2.9 7.9 5.2 4.1 5 5.3 7.9c1.3 3.1 1.9 6.2 1.9 9.4zm-7.2 0c0-2.4-.4-4.7-1.3-6.8s-2.1-4.1-3.8-5.8c-1.6-1.7-3.5-2.9-5.6-3.8s-4.3-1.3-6.7-1.3-4.5.4-6.7 1.3-4 2.2-5.6 3.9-2.9 3.6-3.8 5.7-1.3 4.4-1.3 6.9c0 2.4.4 4.6 1.3 6.8.9 2.1 2.1 4 3.8 5.7 1.6 1.7 3.5 3 5.6 3.8 2.1.9 4.3 1.3 6.7 1.3 2.3 0 4.5-.4 6.6-1.3s4-2.2 5.6-3.8c1.6-1.7 2.9-3.6 3.8-5.7 1-2.3 1.4-4.5 1.4-6.9z"/><path d="m50.3 2.9h6.9v28.3c0 4.2.9 7.4 2.6 9.5 1.8 2.1 4.2 3.2 7.7 3.2s5.9-1.1 7.7-3.2 2.6-5.3 2.6-9.5v-28.3h7v29.1c0 6.3-1.8 10.1-4.7 13.2s-6.8 5.4-12.6 5.4-10.3-2.7-13.2-5.9-4.1-6.5-4.1-12.8z"/><path d="m104.1 9.4v40.3h-6.8v-40.3h-11v-6.5h28.9v6.5z"/><path d="m116.6 49.7v-46.7h7v40.2h13.9v6.6h-20.9z"/><path d="m160.7.3-23 49.5h7.5l5.2-11.3 20-.1 5 11.3h7.7zm-7.4 31.5 7.3-16 6.9 16z"/><path d="m183.4 0v49.7h6.9v-32.6l34.1 35.4v-49.5h-7v32.4z"/><path d="m228.6 49.7v-46.7h9.8c5 0 9.1.7 12.3 2.2 4.7 2.1 8.3 5.4 10.7 9.8 1.9 3.4 2.8 7.2 2.8 11.4 0 7.4-2.8 13.4-8.4 17.9-2.9 2.3-6 3.9-9.2 4.6-2.4.5-5.1.9-8.3.9zm6.7-6.4h4.2c2.6 0 4.9-.3 6.9-.9s3.8-1.6 5.4-3c1.9-1.6 3.3-3.5 4.3-5.8s1.5-4.7 1.5-7.3c0-3.6-1-6.9-2.9-9.8-3.2-4.8-8.3-7.2-15.2-7.2h-4.2z"/></svg>