<svg enable-background="new 0 0 360.16 228.92" viewBox="0 0 360.16 228.92" xmlns="http://www.w3.org/2000/svg"><g fill="#d0b57d"><path d="m0 0v228.92h360.16v-228.92zm344.57 213.33c-14.55 0-314.43 0-328.98 0 0-13.92 0-183.82 0-197.74h328.98z"/><path d="m205.65 196-62.84-85.22 57-76.74-55.48.06-29.17 39.18-28.85-39.12h-.05-55.79l56.71 76.7-63.4 85.14h55.73l35.39-47.64 35.21 47.64z"/><path d="m316.87 26.7c0-3.17 2.55-5.71 5.71-5.71 3.15 0 5.71 2.55 5.71 5.71 0 3.17-2.56 5.71-5.71 5.71-3.16.01-5.71-2.54-5.71-5.71zm10.12 0c0-2.45-1.99-4.41-4.41-4.41-2.46 0-4.41 1.96-4.41 4.41 0 2.44 1.95 4.41 4.41 4.41 2.42 0 4.41-1.96 4.41-4.41zm-1.56 3.14h-1.47l-1.38-2.53h-1.15v2.53h-1.3v-6.18h3.09c1.42 0 2.4.25 2.4 1.89 0 1.14-.59 1.61-1.68 1.68zm-2.19-3.53c.69.02 1.06-.15 1.06-.93 0-.74-.78-.74-1.38-.74h-1.5v1.66h1.82z"/><path d="m292.31 140.52v-14.7c0-5.56 1.33-8.84 9.19-8.84 4.55 0 7.52.7 8.29 4.4h.38c.34-4.15 3.54-4.85 8.05-4.85 8.8 0 10 3.21 10 9.14v14.85zm14.36-7.46v-5.38c0-2.61-.58-3.24-3.45-3.24-2.16 0-2.97.26-3.06 2.35v6.27zm13.69 0v-5.63c0-2.43-.72-3.43-3.64-3.43-2.97 0-3.4.85-3.4 3.28v5.79h7.04z"/><path d="m315.63 98.59h12.59v7.46h-12.59l-23.33 9.92v-8.54l13.84-5v-.26l-13.84-5.15v-8.66z"/><path d="m303.46 70.87c-3.63.15-3.59 2.58-3.59 4.81 0 5.37 2.1 5.52 7.9 5.6h5.84c6.36 0 7.04-1.72 7.04-5.6 0-3.81-1.1-4.81-6.09-4.81v5.14h-6.65v-12.72h6.27c12.12 0 14.32 2.39 14.32 12.39 0 8.81-1.91 13.28-13.55 13.28h-9.29c-11.88 0-13.65-5.07-13.65-13.28 0-7.24.04-12.39 11.44-12.39v7.58z"/><path d="m303.15 41.81c-3.64.15-3.59 2.58-3.59 4.82 0 5.37 2.1 5.52 7.89 5.6h5.85c6.36 0 7.04-1.71 7.04-5.6 0-3.81-1.1-4.82-6.08-4.82v5.15h-6.66v-12.72h6.28c12.11 0 14.31 2.39 14.31 12.39 0 8.8-1.91 13.28-13.55 13.28h-9.29c-11.87 0-13.64-5.07-13.64-13.28 0-7.24.04-12.39 11.44-12.39z"/><path d="m262.95 152.29v-118.28h-50.66v3.26h10.21v2h-10.21v4.33h4.75v2h-4.75v4.33h4.75v2h-4.75v4.33h4.75v2h-4.75v4.33h4.75v2h-4.75v4.33h10.21v2h-10.21v4.33h4.75v2h-4.75v4.33h4.75v2h-4.75v4.33h4.75v2h-4.75v4.33h4.75v2h-4.75v4.33h10.21v2h-10.21v4.33h4.75v2h-4.75v4.34h4.75v2h-4.75v4.33h4.75v2h-4.75v4.33h4.75v2h-4.75v4.33h10.21v2h-10.21v4.33h4.75v2h-4.75v4.33h4.75v2h-4.75v4.33h4.75v2h-4.75v4.33h4.75v2h-4.75v4.33h10.21v2h-10.21v4.33h4.75v2h-4.75v4.33h4.75v2h-4.75v4.33h4.75v2h-4.75v4.33h4.75v2h-4.75v4.79h4.79v-4.76h2v4.76h4.33v-4.76h2v4.76h4.33v-4.76h2v4.76h4.33v-4.76h2v4.76h4.33v-10.21h2v10.21h4.33v-4.76h2v4.76h4.33v-4.76h2v4.76h4.33v-4.76h2v4.76h4.33v-4.76h2v4.76h4.33v-10.21h2v10.21h4.33v-4.76h2v4.76h4.33v-4.76h2v4.76h4.33v-4.76h2v4.76h4.33v-4.76h2v4.76h4.34v-10.21h2v10.21h4.33v-4.76h2v4.76h4.33v-4.76h2v4.76h4.33v-4.76h2v4.76h1.62v-43.7z"/></g></svg>