<?xml version="1.0" encoding="utf-8"?>
<!-- Generator: Adobe Illustrator 25.2.3, SVG Export Plug-In . SVG Version: 6.00 Build 0)  -->
<svg version="1.1" xmlns="http://www.w3.org/2000/svg" xmlns:xlink="http://www.w3.org/1999/xlink" x="0px" y="0px"
	 viewBox="0 0 253.3 253.3" style="enable-background:new 0 0 253.3 253.3;" xml:space="preserve">
<g id="Layer_4">
</g>
<g id="Layer_1">
</g>
<g id="Layer_3">
</g>
<g id="Layer_2">
	<g>
		<path d="M159.9,181.1c-0.6,0-1.2,0.1-1.8,0.4c-0.6,0.3-1.1,0.7-1.6,1.2c-0.5,0.5-0.9,1.1-1.2,1.8c-0.3,0.7-0.5,1.5-0.6,2.4h9.5v0
			c0-1.9-0.4-3.4-1.2-4.3C162.3,181.6,161.3,181.1,159.9,181.1z"/>
		<path d="M66.9,109.2c1.1,0.4,2.4,0.7,3.7,0.8c-0.1-0.4-0.1-0.8-0.2-1.1c-0.1-0.4-0.1-0.7-0.3-1.1c-0.3-1.6-1-3.1-1.9-4.5
			c-0.3-0.3-0.7-0.6-1-0.6c-0.1,0.2-0.2,0.3-0.5,0.4s-0.6,0.1-0.9,0.2c-0.3,0.1-0.6,0.1-0.9,0.2c-0.3,0.1-0.5,0.2-0.7,0.3
			c-0.3,0.3-0.4,0.7-0.4,1.3c0,0.3,0,0.6,0,0.8c0,0.3,0,0.5,0,0.8c0,0.3-0.1,0.6-0.2,0.8C64.7,108.2,65.7,108.8,66.9,109.2z"/>
		<path d="M41.5,106.5c0.3-0.8,0.5-1.6,0.7-2.3c0.5-2.2,0.8-4.4,1.1-6.6c0.2-2.1,0.5-4.3,0.8-6.6c0.3-0.9,0.5-1.9,0.6-2.9
			c0.1-1,0.2-1.9,0.2-2.9c0-0.6-0.1-1.2-0.4-1.7c-0.2-0.6-0.3-1.2-0.3-1.8l-2.6-5.1c-0.3-0.1-0.6-0.2-0.9-0.3
			c-0.3-0.1-0.6-0.2-0.9-0.3c-0.3,0.8-0.3,1.5-0.2,2c0.2,0.5,0.3,1.1,0.4,1.9c-0.1,1.1-0.3,2-0.5,2.8s-0.3,1.7-0.3,2.7
			c0.1,1,0.2,1.8,0.6,2.4s0.4,1.4,0.2,2.2c-0.2,0.9-0.4,1.7-0.4,2.5c0,0.8-0.1,1.6-0.2,2.5c0,0.7-0.1,1.3-0.4,1.9
			c-0.2,0.6-0.3,1.2-0.3,1.8c-0.1,0.6,0,1.1,0.1,1.6c0.1,0.5,0.2,1,0.3,1.6c0,0.6,0,1.1,0.1,1.6s0.1,1,0.3,1.5
			c0.2,0.6,0.3,1.3,0.5,1.8c0.2,0.6,0.4,1.3,0.6,2C40.9,108.1,41.2,107.3,41.5,106.5z"/>
		<path d="M70.8,112.3c-3.1-0.1-5.8-0.8-8.1-2.1c-0.1,0.6-0.2,1.2-0.3,1.8c-0.1,0.6-0.1,1.2-0.1,1.9c0,1.6,0.1,3.2,0.4,4.8
			c0.3,1.6,0.6,3,1.1,4.3s1,2.4,1.6,3.2c0.6,0.8,1.2,1.2,1.9,1.2c1,0,1.9-1,2.7-3c0.4-0.5,0.6-1.3,0.7-2.6c0.1-1.3,0.2-2.6,0.2-4
			c0-1.2,0-2.2,0-3.2C70.8,113.6,70.8,112.8,70.8,112.3z"/>
		<path d="M71,183.2c0.5-0.4,1-0.8,1.5-1.1c0.5-0.4,0.9-0.8,1.3-1.2c0.4-0.4,0.7-0.8,0.9-1.3c0.2-0.5,0.3-0.9,0.3-1.5
			c0-0.3,0-0.7-0.1-1c-0.1-0.3-0.2-0.6-0.4-0.8c-0.2-0.2-0.4-0.5-0.7-0.6c-0.3-0.2-0.6-0.2-1-0.2c-0.9,0-1.6,0.3-2.1,1
			c-0.5,0.7-0.8,1.5-0.8,2.4c0,0.7,0.1,1.4,0.3,2.1C70.4,181.7,70.7,182.5,71,183.2z"/>
		<path d="M73.2,188.8c-1-1.2-1.9-2.5-2.6-3.9c-0.5,0.4-0.9,0.7-1.3,1.1c-0.4,0.4-0.8,0.8-1.1,1.2c-0.3,0.4-0.5,0.8-0.7,1.3
			c-0.2,0.5-0.3,0.9-0.3,1.4c0,0.7,0.1,1.3,0.4,1.9s0.6,1,1,1.4c0.4,0.4,0.9,0.7,1.5,0.9c0.6,0.2,1.2,0.3,1.8,0.3
			c0.9,0,1.7-0.2,2.4-0.6c0.8-0.4,1.5-0.9,2.1-1.6C75.2,191.2,74.2,190,73.2,188.8z"/>
		<path d="M96.1,146c-0.6,0.6-1.2,1.3-1.7,2.1c-1.2,1.7-1.9,3.5-2.3,5.4c-0.3,1.9-0.1,3.9,0.7,5.9c0.2,0.5,0.5,1,0.7,1.5
			c0.2,0.6,0.5,1.1,0.8,1.6c0-0.1,0-0.1,0.1-0.1c0.3-0.1,0.5,0,0.6,0.4c0.1,0.4,0.3,0.7,0.6,0.9l0.1,0.1c0.3-0.3,0.5-0.6,0.6-0.9
			c0.1-0.3,0.2-0.6,0.3-0.9c0.5-1.7,0.9-3.6,1-5.6c0.1-2.1,0.3-3.9,0.4-5.6c0.1-2.3,0.1-4.5,0-6.8C97.3,144.8,96.7,145.4,96.1,146z"
			/>
		<path d="M124.4,183c-0.5-0.6-1-1.1-1.7-1.4c-0.7-0.3-1.4-0.5-2.1-0.5s-1.4,0.2-2.1,0.5c-0.6,0.3-1.2,0.8-1.7,1.4
			c-0.5,0.6-0.8,1.3-1.1,2.1c-0.3,0.8-0.4,1.7-0.4,2.7c0,1,0.1,1.9,0.4,2.7c0.3,0.8,0.6,1.5,1.1,2.1c0.5,0.6,1,1,1.7,1.3
			c0.6,0.3,1.3,0.5,2.1,0.5s1.4-0.2,2.1-0.5c0.7-0.3,1.2-0.8,1.7-1.3c0.5-0.6,0.8-1.3,1.1-2.1s0.4-1.7,0.4-2.7c0-1-0.1-1.9-0.4-2.7
			S124.9,183.5,124.4,183z"/>
		<path d="M129,113.5c-0.3-1.4-0.6-2.8-0.9-4.1c-0.3-1.3-0.4-2.7-0.4-4c-0.4-0.4-0.9-0.5-1.4-0.5c-0.7,0-1.3,0.3-1.9,1
			c-0.6,0.7-1.1,1.5-1.7,2.4c-0.3,0.5-0.6,1.3-1,2.4c-0.4,1.1-0.7,2.4-1,3.9c-0.3,1.4-0.5,2.9-0.8,4.3s-0.3,2.7-0.3,3.7
			c0,0.5,0.1,1.2,0.2,2.2c0.1,1,0.3,2,0.6,3c0.2,1,0.5,1.9,0.8,2.6c0.3,0.8,0.5,1.1,0.8,1.1c0.7,0,1.4-0.3,2.1-1
			c0.7-0.6,1.4-1.4,2-2.3c0.6-0.9,1.2-1.8,1.8-2.8c0.6-1,1.1-1.8,1.5-2.4l1.1-1.6c-0.5-1.2-0.8-2.5-1-4
			C129.4,116.1,129.2,114.7,129,113.5z"/>
		<path d="M209.8,146c-0.6,0.6-1.2,1.3-1.7,2.1c-1.2,1.7-1.9,3.5-2.3,5.4c-0.3,1.9-0.1,3.9,0.7,5.9c0.2,0.5,0.5,1,0.7,1.5
			c0.2,0.6,0.5,1.1,0.8,1.6c0-0.1,0-0.1,0.1-0.1c0.3-0.1,0.5,0,0.6,0.4c0.1,0.4,0.3,0.7,0.6,0.9l0.1,0.1c0.3-0.3,0.5-0.6,0.6-0.9
			c0.1-0.3,0.2-0.6,0.3-0.9c0.5-1.7,0.9-3.6,1-5.6c0.1-2.1,0.3-3.9,0.4-5.6c0.1-2.3,0.1-4.5,0-6.8C211,144.8,210.4,145.4,209.8,146z
			"/>
		<path d="M133.4,32.8l0.3,1c0.3,1.3,0.6,2.4,0.9,3.5c0.1,0.2,0.2,0.4,0.3,0.6c0.1,0.2,0.2,0.4,0.3,0.6c0.1,0.1,0.2,0.2,0.3,0.3
			c0.6,0.5,1.1,1.1,1.6,1.8c0.7,1.1,1.2,2.5,1.7,3.9c0.2,0.5,0.4,1,0.6,1.5c0.5,1.3,1.1,2.7,1.5,4c0-1.5-0.3-2.9-0.9-4.6
			c-0.7-1.9-1.7-3.5-2.8-5.1c-1.3-2-2.6-4-3.4-6.7c-0.8-3-0.7-6.4-0.5-9.7c0-1,0.1-1.9,0.1-2.8c-1.3,2.4-1.1,6.2-0.4,10.2
			C133.2,31.9,133.3,32.3,133.4,32.8z"/>
		<path d="M119.3,49.8l0.1,0.7c0.1,1.1,0.1,1.9,0.4,2.8c0.1,0.1,0.3,0.2,0.4,0.4c0.4,0.4,0.9,0.9,1.3,1.4c0.5,0.9,0.7,1.9,1,2.8
			c0.1,0.4,0.2,0.7,0.3,1c0.4,1.2,0.6,2.3,0.6,3.3c0.5-1,0.5-2.1,0.2-3.4c-0.3-1.3-1-2.4-1.8-3.6c-0.9-1.5-1.8-3-2.1-4.9
			c-0.2-1.9-0.1-3.8,0.2-5.6c-0.1,0-0.1,0.1-0.2,0.2c-0.3,0.3-0.5,0.9-0.6,1.5c0,0.6,0.1,1.3,0.2,2C119.3,49,119.3,49.4,119.3,49.8z
			"/>
		<path d="M137.9,46.6c-0.1-0.2-0.2-0.4-0.3-0.5c0,0.3,0.1,0.7,0.1,1.1c0.1,0.9,0.2,1.9,0.3,3c0.1,1,0.2,2,0.3,3
			c0.2,1,0.3,1.9,0.3,2.8c0.4-0.8,0.7-1.6,0.9-2.3C140,51.6,139.3,48.8,137.9,46.6z"/>
		<path d="M140.3,56.8c-0.3,0.6-0.7,1.3-1.1,2C139.7,58.1,140.1,57.5,140.3,56.8z"/>
		<path d="M115.6,68.5c0.2,0,0.3-0.1,0.4-0.1c0.1,0,0.2-0.1,0.3-0.1c-0.1,0-0.1,0-0.2,0c-0.3,0-0.6,0.1-1,0.2c-0.1,0-0.1,0-0.2,0.1
			c0.2,0,0.3,0,0.4,0C115.4,68.5,115.5,68.5,115.6,68.5z"/>
		<path d="M120.9,59c0,0.2-0.1,0.4-0.1,0.7c-0.1,0.6-0.2,1.3-0.3,2c-0.1,1.2-0.3,2.5-0.6,3.7c0.6-0.5,1.2-1,1.5-1.6
			c0.8-1.1,0.6-2.8-0.3-4.4C121.1,59.3,121,59.2,120.9,59z"/>
		<path d="M114.8,68.6c-0.1,0-0.2,0.1-0.3,0.1C114.6,68.7,114.7,68.7,114.8,68.6L114.8,68.6z"/>
		<path d="M126.7,0C56.7,0,0,56.7,0,126.7s56.7,126.7,126.7,126.7s126.7-56.7,126.7-126.7S196.6,0,126.7,0z M132.7,18.8
			c0.3-0.4,0.6-0.7,0.9-1l0.7-0.8l-0.1,0.4l0.3,0.6l0.1-0.1l0,0.2l0.2,0.4c-0.1,0-0.1,0.1-0.2,0.1l0,0.7c0.1,1.5,0,3.1-0.1,4.8
			c-0.1,3.2-0.3,6.5,0.5,9.3c0.7,2.5,1.9,4.3,3.2,6.3c1.1,1.6,2.2,3.3,2.9,5.4c1.1,3,1.3,5.6,0.5,8.3c0.3,2.4,0,4.6-1.7,6.4
			c-1,1-1.2,1.3-1.4,1.6c-0.3,0.4-0.6,0.9-1.9,2.3c-0.2,0.2-0.4,0.5-0.6,0.6c-0.4,0.6-0.9,1.2-2.3,2.1l-0.8-1c0,0,0.1-0.1,0.1-0.1
			l0,0c0,0,0,0,0,0l0,0c0,0,0,0,0,0c0.5-0.5,1-1.5,1.5-2.3c0.5-0.9,0.8-1.4,1.1-1.7c0.1,0,0.1-0.1,0.2-0.2c0.2-0.4,0.4-0.8,0.5-1.1
			c0.1-0.5,0.1-1.1,0.5-1.9c0.1-0.2,0.1-0.3,0.2-0.5c0.1-1.3,0-2.8-0.1-4.3c-0.1-0.7-0.3-1.4-0.4-2.1c-0.2-0.7-0.3-1.4-0.5-2.1
			c-0.3-1.7-0.9-3.8-1.6-6.3c-0.4-1.5-0.8-3-1.3-4.6c-0.1-0.1-0.1-0.2-0.2-0.3c-0.5-1-1.5-4.5-1.9-8.3c-0.3-1.1-0.5-2.3-0.5-3.5
			c0-0.1,0-0.2,0-0.3C130.4,23,130.7,21,132.7,18.8z M111,69.2l0-0.8c1.1,0,1.5-0.2,2.1-0.6c0.4-0.2,0.9-0.5,1.6-0.7
			c0.5-0.1,0.9-0.2,1.2-0.2c0.6-0.1,1-0.1,1.5-0.6c1.3-1.3,1.4-3.3,1.4-5.7c0-1.3-0.4-3.1-0.8-5c-0.1-0.4-0.2-0.9-0.3-1.3
			c-0.1-0.2-0.2-0.4-0.3-0.6c-1-2.4-1.1-4.3-1-6.8c0.1-1.7,0.7-2.7,1.6-3.4c0.6-1,1.5-1.7,2.8-2.2l1.2-0.5l-0.3,1.2c0,0,0,0,0,0
			l0.4,0.4c-0.2,0.3-0.4,0.6-0.7,0.8c-0.5,2.3-0.8,4.6-0.5,7.1c0.2,1.6,1,3,1.9,4.4c0.8,1.2,1.5,2.5,1.9,4c0.6,2.6,0,4.6-1.9,6.6
			c-0.4,1.1-1.1,2-2,3c-1.3,1.3-2.8,1.4-4.2,1.5c-0.2,0-0.3,0-0.5,0c-1.2,0.5-2.8,1-4.1,1c0,0,0,0-0.1,0c-0.1,0-0.2,0-0.3,0
			c-0.6,0-1.2-0.2-1.7-0.7L111,69.2z M54.4,141.7c-0.7,1.1-1.4,1.9-2.2,2.4c-0.8,0.5-1.9,0.9-3.2,1.4c-0.7,0.3-1.2,0.5-1.8,0.7
			c-0.6,0.2-1,0.3-1.4,0.3c-0.5,0-0.8,0-1.1-0.1c-0.1,0-0.2,0-0.3,0c-0.1,0-0.1,0-0.2,0c-0.2,0.1-0.6,0.1-1,0.1c-0.4,0-0.7,0-1-0.1
			c-0.9-0.3-1.7-0.7-2.3-1.1l-2-5l-0.5-4.1l-1.1-3.8c-1.9-5.5-3.4-11-4.5-16.5c-1.1-5.5-1.7-11.1-1.7-16.8c0-1.7,0-3.4,0.1-5.2
			c0.1-1.8,0.3-3.5,0.6-5.4l0.3-1.8c0.1-1.4,0.2-2.8,0.4-4.2c0.2-1.4,0.6-2.7,1.1-4c0.2-0.6,0.6-1.3,1.2-2c0.1-0.2,0.2-0.6,0.4-1.1
			c1.3-1.8,2.6-3,3.8-3.5c1.2-0.5,2.3-0.5,3.3,0c1,0.5,1.9,1.4,2.7,2.7c0.8,1.3,1.5,2.8,2.1,4.6c0.6,1.7,1,3.6,1.3,5.5
			c0.3,1.9,0.4,3.8,0.4,5.6c0,1.5-0.1,2.8-0.4,3.8c-0.4,1.7-0.8,3.1-1,4.3c-0.3,1.1-0.5,2.1-0.6,3c-0.2,0.9-0.3,1.7-0.4,2.2
			c-0.1,0.5-0.3,1-0.4,1.4c-0.2,0.4-0.4,0.8-0.7,1.2c-0.3,0.4-0.7,1-1.2,1.7c-0.6,0.8-1,1.5-1.2,2.1c-0.2,0.6-0.4,1.1-0.5,1.6
			c-0.1,0.5-0.2,1-0.4,1.5c-0.1,0.5-0.4,1-0.9,1.6c0.2,0.9,0.3,1.6,0.4,2.1c0.1,0.5,0.2,0.9,0.3,1.2c0.1,0.3,0.2,0.5,0.3,0.7
			c0.1,0.1,0.2,0.3,0.3,0.6c0,0.1,0,0.1,0,0.1c0,0,0,0.1,0,0.1l1.1,3.1c0.1,0.3,0.1,0.8,0.2,1.5c0.1,0.7,0.3,1.7,0.7,3
			c0.3,1.2,0.9,2.7,1.7,4.5c0.8,1.8,1.9,3.8,3.3,6.2c0.3,0.8,0.6,1.4,0.9,2c0.2,0.6,0.5,0.9,0.8,1.1c0.3,0.2,0.6,0.2,1,0
			c0.4-0.2,1-0.7,1.8-1.5c0.1-0.1,0.3-0.3,0.4-0.6c0.2-0.3,0.4-0.4,0.5-0.4s0.3,0.2,0.3,0.8S54.5,140.3,54.4,141.7z M81.7,195.5
			c-1.4-0.5-2.8-1.3-4.4-2.6c-0.8,0.8-1.6,1.4-2.5,1.9c-0.9,0.5-1.9,0.7-3.1,0.7c-0.8,0-1.6-0.1-2.3-0.4c-0.7-0.3-1.4-0.6-1.9-1.1
			c-0.5-0.5-1-1.1-1.3-1.8s-0.5-1.5-0.5-2.3c0-0.7,0.1-1.3,0.4-1.9s0.5-1.1,0.9-1.6c0.4-0.5,0.8-0.9,1.3-1.4c0.5-0.4,1-0.8,1.6-1.2
			c-0.4-0.9-0.8-1.7-1-2.6c-0.2-0.9-0.4-1.7-0.4-2.5c0-0.7,0.1-1.3,0.3-1.8s0.5-1,0.9-1.4c0.4-0.4,0.8-0.7,1.3-0.9
			c0.5-0.2,1.1-0.3,1.7-0.3c1.1,0,2,0.4,2.5,1.1c0.6,0.7,0.9,1.6,0.9,2.7c0,0.7-0.1,1.3-0.4,1.8s-0.6,1.1-1.1,1.6
			c-0.5,0.5-1,1-1.5,1.4c-0.6,0.4-1.1,0.9-1.7,1.3c0.7,1.3,1.6,2.6,2.6,3.8s2,2.3,3.1,3.2c0.7-0.9,1.4-2,1.9-3.1
			c0.5-1.1,1-2.3,1.3-3.7h1.3c-0.4,1.4-0.9,2.8-1.5,4c-0.6,1.3-1.3,2.4-2.1,3.5c0.7,0.6,1.4,1.1,2.1,1.4c0.7,0.4,1.3,0.7,1.9,0.9
			L81.7,195.5z M106.5,195c-0.8,0.4-1.7,0.6-2.6,0.6c-1,0-1.9-0.2-2.7-0.5c-0.8-0.3-1.5-0.9-2.1-1.5c-0.6-0.7-1.1-1.5-1.4-2.4
			c-0.3-1-0.5-2.1-0.5-3.3s0.2-2.4,0.6-3.3s0.9-1.8,1.5-2.5c0.6-0.7,1.3-1.2,2.2-1.5c0.8-0.3,1.7-0.5,2.6-0.5c1,0,1.9,0.2,2.6,0.6
			s1.3,0.8,1.8,1.3l-0.8,1c-0.5-0.5-1-0.8-1.6-1.1s-1.2-0.5-2-0.5c-0.8,0-1.5,0.2-2.1,0.5c-0.6,0.3-1.2,0.8-1.7,1.4
			c-0.5,0.6-0.9,1.3-1.2,2.1c-0.3,0.8-0.4,1.7-0.4,2.7c0,1,0.1,1.9,0.4,2.7c0.3,0.8,0.6,1.5,1.1,2.1s1,1,1.7,1.3
			c0.7,0.3,1.4,0.5,2.2,0.5c0.8,0,1.5-0.2,2.2-0.5c0.7-0.3,1.3-0.7,1.8-1.2l0.7,0.9C108,194.1,107.3,194.6,106.5,195z M126.8,191.1
			c-0.4,1-0.8,1.8-1.5,2.4c-0.6,0.7-1.3,1.2-2.1,1.5c-0.8,0.3-1.7,0.5-2.6,0.5c-0.9,0-1.7-0.2-2.6-0.5c-0.8-0.4-1.5-0.9-2.1-1.5
			c-0.6-0.7-1.1-1.5-1.5-2.4c-0.4-1-0.5-2.1-0.5-3.3s0.2-2.4,0.5-3.3c0.4-1,0.8-1.8,1.5-2.5c0.6-0.7,1.3-1.2,2.1-1.5
			c0.8-0.3,1.7-0.5,2.6-0.5c0.9,0,1.7,0.2,2.6,0.5c0.8,0.4,1.5,0.9,2.1,1.5c0.6,0.7,1.1,1.5,1.5,2.5c0.4,1,0.5,2.1,0.5,3.3
			S127.2,190.1,126.8,191.1z M149.2,174.1c-0.3-0.2-0.6-0.3-0.9-0.3c-0.3-0.1-0.6-0.1-0.9-0.1c-0.8,0-1.4,0.3-1.8,0.9
			c-0.4,0.6-0.6,1.4-0.6,2.5v3.2h3.4v1.2h-3.4v13.7h-1.4v-13.7h-6.9v13.7h-1.4v-13.7h-2v-1.1l2-0.1v-2.8c0-1.5,0.3-2.7,1.1-3.5
			c0.7-0.8,1.7-1.2,3-1.2c0.4,0,0.8,0.1,1.3,0.1c0.4,0.1,0.8,0.2,1.3,0.4l-0.4,1.1c-0.4-0.2-0.7-0.3-1.1-0.4
			c-0.3-0.1-0.7-0.1-1.1-0.1c-0.9,0-1.6,0.3-2,1c-0.5,0.6-0.7,1.5-0.7,2.7v2.7h6.9V177c0-1.5,0.3-2.6,1-3.3c0.6-0.7,1.6-1.1,2.7-1.1
			c0.7,0,1.4,0.2,2.2,0.5L149.2,174.1z M165.6,187.4c0,0.2,0,0.4-0.1,0.6h-10.7c0,0.9,0.2,1.8,0.4,2.6c0.3,0.8,0.7,1.5,1.1,2
			c0.5,0.6,1.1,1,1.8,1.3s1.5,0.5,2.3,0.5c0.8,0,1.5-0.1,2.2-0.4c0.6-0.2,1.3-0.6,1.8-1l0.6,1.1c-0.6,0.3-1.3,0.7-2,1
			s-1.6,0.5-2.7,0.5c-1,0-1.9-0.2-2.7-0.5c-0.8-0.4-1.6-0.9-2.2-1.5c-0.6-0.7-1.1-1.5-1.5-2.5c-0.4-1-0.5-2.1-0.5-3.3
			c0-1.2,0.2-2.3,0.5-3.3c0.4-1,0.8-1.8,1.5-2.5c0.6-0.7,1.3-1.2,2.1-1.5c0.8-0.4,1.6-0.5,2.4-0.5c1.8,0,3.2,0.6,4.2,1.8
			s1.5,2.9,1.5,5.1C165.6,187,165.6,187.2,165.6,187.4z M168.4,145.5c-0.6,0.3-1.2,0.5-1.8,0.7c-0.6,0.2-1,0.3-1.4,0.3
			c-0.5,0-0.8,0-1-0.1c-0.1,0-0.2,0-0.3,0c-0.1,0-0.1,0-0.2,0c-0.2,0.1-0.6,0.1-1,0.1c-0.4,0-0.7,0-1-0.1c-0.9-0.3-1.7-0.7-2.3-1.1
			l-2.1-5L157,136l-1-3.8c-0.8-2.3-1.5-4.5-2.1-6.8c-1.3,2.8-3,5.3-5.3,7.7c-0.7,0.7-1.3,1.3-1.7,1.8c-0.4,0.5-0.9,0.9-1.3,1.3
			c-0.2,0.2-0.5,0.4-1,0.8s-0.9,0.6-1.1,0.7c-0.5,0.2-0.9,0.3-1.4,0.3h-2.9c-1-0.1-1.7-0.5-2.2-1.1c-1.5-2-2.8-4.5-3.7-7.4
			c-0.1-0.2-0.2-0.4-0.2-0.4l-1.2-3c-0.5,0.8-1,1.7-1.7,2.7c-0.7,1-1.3,1.8-2,2.4c-0.9,0.9-2.1,1.8-3.6,2.5c-1.5,0.7-3,1.1-4.5,1.1
			c-1.2,0-2.2-0.3-3.1-0.9c-0.9-0.6-1.6-1.5-2.1-2.9c-0.3-1-0.4-2.1-0.4-3.3c0-0.2,0-0.3,0-0.5c-0.1,0.2-0.1,0.3-0.2,0.5
			c-0.3,0.7-0.8,1.6-1.5,2.7c-0.7,1.1-1.4,2.2-2.3,3.3c-0.8,1.1-1.7,2.1-2.6,3.1c-0.9,1-1.7,1.7-2.3,2.1c0,3.3-0.1,6.5-0.4,9.8
			c-0.2,3.2-0.7,6.5-1.3,9.8c-0.2,1.2-0.5,2.5-0.9,4c-0.4,1.5-0.9,2.8-1.6,4c-0.7,1.2-1.6,2.1-2.7,2.9c-1.1,0.7-2.5,0.8-4.1,0.4
			c-1.7-0.5-3.1-1.5-4.1-3.1c-1.1-1.6-1.8-3.4-2.3-5.5s-0.7-4-0.6-6.1c0.1-2,0.4-3.7,1-5c0.9-2.2,2.2-4.2,3.9-5.9
			c1.6-1.7,3.5-3.2,5.4-4.6c-0.1-1.6-0.3-3.3-0.5-4.9c-0.2-1.6-0.4-3.3-0.6-4.9c-0.8,1.2-1.8,2.4-2.8,3.4c-1.1,1-2.2,1.8-3.3,2.5
			c-1.1,0.6-2.3,0.9-3.5,1c-1.2,0.1-2.3-0.3-3.4-1.1c-0.9-0.6-1.5-1.7-2-3.4c-0.5-1.7-0.8-3.5-1-5.4c-0.2-1.9-0.4-3.8-0.4-5.6
			c-0.1-1.8-0.2-3.2-0.3-4.1c-0.1-0.9-0.2-1.8-0.4-2.6c-0.1-0.8-0.2-1.5-0.3-2.3c-0.7,0.1-1.5,0.2-2.3,0.2c-0.3,0-0.6,0-1,0
			c-0.4,0-0.7,0-1-0.1c0.1,0.3,0.1,0.6,0.1,0.9c0,0.3,0,0.7,0,1c0,1.2-0.1,2.5-0.3,3.9c-0.2,1.4-0.4,2.7-0.8,4
			c-0.3,1.3-0.8,2.5-1.3,3.6c-0.5,1.1-1.1,2-1.7,2.7c-1.9,2-4.2,3-6.7,3c-1.3,0-2.5-0.2-3.8-0.8c-1.2-0.5-2.4-1.2-3.5-2.1
			c-1.1-0.9-2-1.9-2.9-3c-0.8-1.1-1.5-2.4-2-3.7c-0.5-1.2-0.8-2.5-1.1-3.9c-0.3-1.4-0.4-2.7-0.4-4.1v-0.4c0.1-2.5,0.6-4.7,1.5-6.6
			c0.9-2,2.2-3.8,3.8-5.5c0.8-0.6,1.5-1.1,2.2-1.3c0.7-0.2,1.4-0.3,2.1-0.3c1.2,0,2.2,0.3,3,1c0.3-0.1,0.6-0.1,1-0.1
			c0.3,0,0.7,0,1,0c0.4,0,0.8,0,1.2,0.1c0.4,0.1,0.8,0.2,1.1,0.2c1,0.2,1.9,0.8,2.8,1.8s1.7,2.1,2.3,3.2c0.7,1.1,1.2,2.2,1.6,3.1
			c0.4,0.9,0.6,1.4,0.6,1.4c0.2,0.5,0.7,0.6,1.3,0.4c0.6-0.2,1.2-0.3,1.7-0.3c0.4,0,0.9,0,1.3-0.1c0,0,0-0.1,0-0.1c0,0,0,0,0,0
			c0-1.1,0.2-2,0.8-2.8c0.5-0.8,1.2-1.4,2-1.8c0.8-0.4,1.8-0.5,2.8-0.3c1.1,0.2,2.1,0.6,3.2,1.4c0.3,0.7,0.7,1.1,1,1.5
			c0.3,0.4,0.5,0.9,0.7,1.8c0.1,0.7,0.1,1.1,0,1.5c-0.1,0.4-0.2,0.8-0.3,1.3l-0.2,0.4c0-0.2,0-0.5,0.1-0.9s0.1-0.7,0.1-1
			c0-0.3,0-0.5,0-0.6s0-0.1-0.1,0.1c-0.6,3.3-1.1,6.9-1.7,10.5c-0.5,3.7-0.6,7.3-0.3,10.8c0.5,0.3,1.2,0.3,1.9,0.1
			c0.7-0.2,1.5-0.5,2.3-1c0.8-0.5,1.7-1.1,2.5-1.8s1.7-1.5,2.5-2.2c-0.1-0.2-0.1-0.6-0.1-1.2c-0.1-1.5-0.2-3.1-0.2-4.7
			c0-1.6-0.1-3.2-0.2-4.8c-0.1-0.1-0.1-0.3-0.2-0.7c-0.1-0.5-0.2-0.7-0.3-0.9c-0.8-1.8-1-3.3-0.6-4.7c0.4-1.4,1.1-2.3,2.2-3
			s2.3-0.8,3.7-0.5c1.4,0.3,2.7,1.2,3.8,2.8c0.6,1.2,1.1,2.5,1.2,3.8s0.2,2.7,0.2,4c0,1.4-0.1,2.7-0.3,4.1c-0.2,1.4-0.2,2.7-0.2,4.1
			v9.5c1.9-1.1,3.5-2.4,4.8-4c1.3-1.6,2.2-3,2.5-4.1c1.1-4.9,2.1-8.7,3-11.6c0.9-2.8,1.6-4.8,2.1-5.8c0.5-1,0.9-1.4,1.1-0.9
			c0.1,0.2,0.1,0.7,0.1,1.2c0.4-0.9,0.8-1.7,1.3-2.4c1.1-1.9,2.2-3.1,3.2-3.7c0.4-0.2,0.8-0.4,1.3-0.6c0.4-0.2,0.9-0.4,1.4-0.4h0.4
			l0.6,0.2c0.2-1.5,0.8-2.6,1.7-3.4c0.9-0.8,1.9-1.2,3.1-1.2c0.9,0,1.8,0.2,2.6,0.8s1.7,1.3,2.5,2.3c0.7,0.9,1.1,1.9,1.1,3.2
			c0.1,0.3,0.2,0.6,0.2,0.8c0,0.2,0,0.5,0.1,0.7c0.1,0.5,0.1,1,0.1,1.5s0,1.2,0,1.8c0,1.3,0,2.8,0,4.3c0,1.5,0,3.2,0,4.9
			c0,1.2,0,2.5,0,3.7c0,1.2,0.1,2.4,0.2,3.6c0.8,2.7,1.4,4.7,1.9,6.1c0.5,1.4,1.1,2.1,1.7,2.2c0.6,0.1,1.5-0.4,2.5-1.5
			c1-1.1,2.5-2.7,4.3-4.9c0.7-0.8,1.4-1.9,2.1-3.1c0.5-1,1.1-2.1,1.6-3.2c-0.5-1.9-0.9-3.8-1.3-5.6c-1.1-5.5-1.7-11.1-1.7-16.8
			c0-1.7,0-3.4,0.1-5.2c0.1-1.8,0.3-3.5,0.6-5.4l0.3-1.8c0.1-1.4,0.2-2.8,0.4-4.2c0.2-1.4,0.6-2.7,1.1-4c0.2-0.6,0.6-1.3,1.2-2
			c0.1-0.2,0.2-0.6,0.4-1.1c1.4-1.8,2.6-3,3.8-3.5s2.3-0.5,3.3,0c1,0.5,1.9,1.4,2.7,2.7c0.8,1.3,1.5,2.8,2.1,4.6
			c0.6,1.7,1,3.6,1.3,5.5c0.3,1.9,0.4,3.8,0.4,5.6c0,1.5-0.1,2.8-0.3,3.8c-0.4,1.7-0.8,3.1-1,4.3s-0.5,2.1-0.6,3
			c-0.2,0.9-0.3,1.7-0.4,2.2c-0.1,0.5-0.3,1-0.4,1.4c-0.2,0.4-0.4,0.8-0.7,1.2c-0.3,0.4-0.7,1-1.2,1.7c-0.6,0.8-1,1.5-1.2,2.1
			c-0.2,0.6-0.4,1.1-0.5,1.6c-0.1,0.5-0.2,1-0.4,1.5c-0.1,0.5-0.5,1-0.9,1.6c0.2,0.9,0.3,1.6,0.4,2.1c0.1,0.5,0.2,0.9,0.3,1.2
			c0.1,0.3,0.2,0.5,0.3,0.7c0.1,0.1,0.2,0.3,0.3,0.6c0,0.1,0,0.1,0,0.1c0,0,0,0.1,0,0.1l1.1,3.1c0.1,0.3,0.1,0.8,0.2,1.5
			c0.1,0.7,0.3,1.7,0.7,3c0.4,1.2,0.9,2.7,1.7,4.5c0.8,1.8,1.9,3.8,3.3,6.2c0.4,0.8,0.6,1.4,0.9,2c0.2,0.6,0.5,0.9,0.8,1.1
			c0.3,0.2,0.6,0.2,1,0c0.4-0.2,1-0.7,1.8-1.5c0.1-0.1,0.3-0.3,0.4-0.6c0.2-0.3,0.3-0.4,0.5-0.4s0.3,0.2,0.4,0.8
			c0.1,0.5,0.1,1.5,0,2.9c-0.7,1.1-1.4,1.9-2.2,2.4C170.8,144.5,169.8,145,168.4,145.5z M184,187.4c0,0.2,0,0.4-0.1,0.6h-10.7
			c0,0.9,0.2,1.8,0.4,2.6c0.3,0.8,0.6,1.5,1.1,2c0.5,0.6,1.1,1,1.8,1.3s1.4,0.5,2.3,0.5c0.8,0,1.5-0.1,2.2-0.4
			c0.6-0.2,1.3-0.6,1.8-1l0.6,1.1c-0.6,0.3-1.3,0.7-2,1c-0.7,0.3-1.6,0.5-2.7,0.5c-1,0-1.9-0.2-2.7-0.5c-0.8-0.4-1.6-0.9-2.2-1.5
			c-0.6-0.7-1.1-1.5-1.5-2.5c-0.4-1-0.5-2.1-0.5-3.3c0-1.2,0.2-2.3,0.5-3.3c0.4-1,0.9-1.8,1.5-2.5s1.3-1.2,2.1-1.5
			c0.8-0.4,1.6-0.5,2.4-0.5c1.8,0,3.2,0.6,4.2,1.8s1.5,2.9,1.5,5.1C184,187,184,187.2,184,187.4z M230.9,118.3
			c-0.8,2.8-1.8,5.9-3.1,9.4c-0.3,0.7-0.8,1.6-1.5,2.7c-0.7,1.1-1.4,2.2-2.3,3.3c-0.9,1.1-1.7,2.1-2.6,3.1c-0.9,1-1.7,1.7-2.3,2.1
			c0,3.3-0.1,6.5-0.3,9.8c-0.2,3.2-0.7,6.5-1.3,9.8c-0.2,1.2-0.5,2.5-0.9,4c-0.4,1.5-0.9,2.8-1.6,4c-0.7,1.2-1.6,2.1-2.7,2.9
			c-1.1,0.7-2.5,0.8-4.1,0.4c-1.7-0.5-3.1-1.5-4.1-3.1c-1-1.6-1.8-3.4-2.3-5.5s-0.7-4-0.6-6.1c0.1-2,0.4-3.7,1-5
			c0.9-2.2,2.2-4.2,3.9-5.9c1.6-1.7,3.5-3.2,5.5-4.6c-0.1-1.6-0.3-3.3-0.5-4.9c-0.2-1.6-0.4-3.3-0.6-4.9c-0.8,1.2-1.8,2.4-2.8,3.4
			c-1.1,1-2.2,1.8-3.3,2.5c-1.1,0.6-2.3,0.9-3.5,1s-2.3-0.3-3.4-1.1c-0.9-0.6-1.5-1.7-2-3.4c-0.4-1.4-0.7-2.9-0.9-4.5
			c-0.5,1.3-1.1,2.5-1.8,3.6c-1.4,2.4-3,4.4-4.8,6c-1.8,1.6-3.8,2.4-5.9,2.5c-0.2,0-0.4,0-0.7,0c-0.3,0-0.5,0-0.7,0
			c-1.6-0.6-2.8-1.3-3.7-2.1s-1.5-1.8-2-2.9s-0.7-2.4-0.8-3.7s-0.2-2.9-0.3-4.5c-0.1-2.2-0.1-4.4,0-6.6c0.1-2.5,0.3-4.9,0.5-7.3
			c0.2-2.4,0.4-4.9,0.7-7.3c0.2-2.5,0.5-4.6,0.8-6.3s0.7-3.5,0.9-5.4c-1.1,0.1-2.2,0.2-3.3,0.3c-1.1,0.1-2.2,0.1-3.3,0.2
			c-0.6-0.1-1.1-0.3-1.4-0.7c-0.3-0.4-0.4-0.8-0.4-1.2c0-0.4,0.2-0.8,0.5-1.1s0.8-0.5,1.4-0.6c1.3,0.1,2.5,0.1,3.6,0.1
			c1.1,0,2.2,0,3.2,0c0.1-1.2,0.1-2.6,0-4.1c0.3-1.6,0.9-2.9,1.7-3.8c0.8-0.9,1.6-1.4,2.5-1.5c0.9-0.1,1.8,0.2,2.7,0.9
			c0.9,0.7,1.5,1.9,2,3.5c-0.1,0.9-0.2,1.7-0.2,2.5c0,0.8-0.1,1.5-0.1,2.3c1.4-0.1,2.8-0.2,4.2-0.2c1.5,0,3.1,0,4.8,0
			c0.5,0.2,0.8,0.5,0.8,0.9s-0.3,0.7-0.9,0.8c-1.3,0.3-2.7,0.5-4.1,0.6c-1.4,0.1-2.8,0.1-4.2,0c-0.2,0.1-0.5,0.1-0.9,0.1
			c-0.2,2.8-0.4,5.5-0.8,8c-0.3,2.6-0.8,5.5-1.4,8.8c-0.5,2.4-0.9,4.7-1.2,6.8c-0.3,2.1-0.6,4-0.8,5.7c-0.1,0.2-0.1,0.2-0.1,0
			c-0.3,1.9-0.7,4.1-1.1,6.4s-0.4,4.6,0,6.8c0.1,0.3,0.3,0.6,0.6,0.8c0.4,0.1,0.8,0.2,1.2,0.2c0.5,0,0.9,0,1.4-0.1
			c0.5-0.1,0.9-0.2,1.3-0.2c0.9-0.1,2-0.7,3.1-1.7c1.1-1,2.2-2.3,3.2-3.7c1.1-1.5,2-3.1,2.8-4.8c0.1-0.2,0.2-0.4,0.3-0.6
			c-0.1-1.2-0.2-2.3-0.2-3.4c-0.1-1.8-0.2-3.2-0.3-4.1c-0.1-0.9-0.2-1.8-0.3-2.6s-0.2-1.8-0.4-2.6c0-0.1,0-0.2,0-0.4
			c0-0.2,0-0.4,0-0.7c0-0.2,0-0.4,0-0.6c0,0,0,0,0,0c0-1.1,0.2-2,0.8-2.8c0.5-0.8,1.2-1.4,2-1.8s1.8-0.5,2.8-0.3s2.1,0.6,3.2,1.4
			c0.4,0.7,0.7,1.1,1,1.5c0.3,0.4,0.5,0.9,0.7,1.8c0.1,0.7,0.1,1.1,0,1.5c-0.1,0.4-0.2,0.8-0.3,1.3l-0.2,0.4c0-0.2,0-0.5,0.1-0.9
			s0.1-0.7,0.1-1c0-0.3,0-0.5,0-0.6s0-0.1-0.1,0.1c-0.6,3.3-1.1,6.9-1.7,10.5c-0.5,3.7-0.7,7.3-0.4,10.8c0.5,0.3,1.2,0.3,1.9,0.1
			c0.7-0.2,1.5-0.5,2.3-1c0.8-0.5,1.7-1.1,2.5-1.8s1.7-1.5,2.5-2.2c-0.1-0.2-0.1-0.6-0.1-1.2c-0.1-1.5-0.2-3.1-0.2-4.7
			c0-1.6-0.1-3.2-0.2-4.8c-0.1-0.1-0.1-0.3-0.2-0.7c0-0.5-0.1-0.7-0.3-0.9c-0.8-1.8-1-3.3-0.6-4.7c0.4-1.4,1.1-2.3,2.2-3
			c1.1-0.6,2.3-0.8,3.7-0.5c1.4,0.3,2.7,1.2,3.8,2.8c0.6,1.2,1,2.5,1.2,3.8s0.2,2.7,0.2,4c0,1.4-0.1,2.7-0.3,4.1
			c-0.2,1.4-0.2,2.7-0.2,4.1v9.5c1.9-1.1,3.5-2.4,4.8-4c1.3-1.6,2.2-3,2.5-4.1c1.1-4.9,2.1-8.7,3-11.6c0.9-2.8,1.6-4.8,2.1-5.8
			c0.5-1,0.9-1.4,1.1-0.9c0.2,0.5,0.1,1.5-0.1,3.2S231.7,115.5,230.9,118.3z"/>
		<path d="M178.3,181.1c-0.6,0-1.2,0.1-1.8,0.4c-0.6,0.3-1.1,0.7-1.6,1.2c-0.5,0.5-0.8,1.1-1.1,1.8c-0.3,0.7-0.5,1.5-0.6,2.4h9.5v0
			c0-1.9-0.4-3.4-1.2-4.3C180.8,181.6,179.7,181.1,178.3,181.1z"/>
		<path d="M160.9,106.5c0.3-0.8,0.5-1.6,0.7-2.3c0.5-2.2,0.8-4.4,1.1-6.6c0.2-2.1,0.5-4.3,0.8-6.6c0.3-0.9,0.5-1.9,0.6-2.9
			c0.1-1,0.2-1.9,0.2-2.9c0-0.6-0.1-1.2-0.4-1.7c-0.2-0.6-0.3-1.2-0.3-1.8l-2.6-5.1c-0.3-0.1-0.6-0.2-0.9-0.3
			c-0.3-0.1-0.6-0.2-0.9-0.3c-0.3,0.8-0.4,1.5-0.2,2c0.2,0.5,0.3,1.1,0.4,1.9c-0.1,1.1-0.3,2-0.5,2.8s-0.3,1.7-0.3,2.7
			c0.1,1,0.2,1.8,0.6,2.4s0.4,1.4,0.2,2.2c-0.2,0.9-0.4,1.7-0.4,2.5c0,0.8-0.1,1.6-0.2,2.5c0,0.7-0.1,1.3-0.4,1.9
			c-0.2,0.6-0.3,1.2-0.3,1.8c-0.1,0.6,0,1.1,0.1,1.6s0.2,1,0.3,1.6c0,0.6,0,1.1,0.1,1.6s0.1,1,0.3,1.5c0.2,0.6,0.4,1.3,0.5,1.8
			c0.2,0.6,0.4,1.3,0.6,2C160.2,108.1,160.5,107.3,160.9,106.5z"/>
	</g>
</g>
</svg>
