<svg xmlns="http://www.w3.org/2000/svg" viewBox="0 0 544.01 91.42"><defs><style>.cls-1{fill:#231f20;}.cls-2{fill:none;}.cls-3{fill:#fff;}</style></defs><title>Asset 11Oculos logo 2020_neg</title><g id="Layer_2" data-name="Layer 2"><g id="Logo"><polygon class="cls-1" points="48.46 90.27 48.46 90.27 48.45 90.27 48.46 90.27"/><polygon class="cls-1" points="401.33 90.27 401.33 90.27 401.33 90.27 401.33 90.27"/><path class="cls-2" d="M268.45,6.92l-.24.1c-6.19,2.37-9.33,7.22-9.33,14.41l-.06,15.63v2.62c0,23.52-2.34,33.82-24.76,33.82-17.62,0-22.7-6.64-24.17-19.73a55.07,55.07,0,0,1-7.48,17.83,26.23,26.23,0,0,0,2.27,3.68c5.4,7.24,14.73,10.61,29.37,10.61s24-3.37,29.4-10.61c5-6.65,7.18-17,7.18-33.46V6.19l-1.25.42Z"/><path class="cls-2" d="M209.25,21.44c0-7.2-3.14-12-9.33-14.42l-.32-.13-.84-.28-1.26-.42V41.82c0,11.39,1.05,19.71,3.3,26,5.48-9.3,8.34-22.29,8.48-38.66Z"/><path class="cls-2" d="M167.71,73.68H155.62c-3.57,0-15.66-.45-21.4-6.25-8.2-8.29-8.21-21-8.21-21.49v-.52c0-.53,0-13.19,8.21-21.48,5.59-5.65,16.28-6.25,20.62-6.25h7.83c6.22,0,10.91-2.76,13.57-8,.22-.45.43-.9.62-1.37l1.39-3H154.17c-10.81,0-18.33,2-22.74,3.7A26.73,26.73,0,0,0,125,12.28l-.3.22a30.35,30.35,0,0,0-9,9.67c-3.4,5.84-5.13,13.25-5.13,22v3c0,8.78,1.73,16.19,5.13,22a30.25,30.25,0,0,0,9,9.67l.31.23a27.81,27.81,0,0,0,6.82,3.42,63.25,63.25,0,0,0,22.32,3.87l.7,0h.35l2.2,0h2c6.12,0,14.43,0,22.61-3C179.58,77.07,174.63,73.68,167.71,73.68Z"/><path class="cls-2" d="M47.63,17.33c-8.31,0-14.31,2-18.35,6-4.62,4.62-6.86,12.15-6.86,23,0,9.7,2.29,16.91,6.8,21.43C33.39,72,39.42,74,47.63,74S62,72,66.12,67.85h0C70.73,63.27,73,56,73,45.66,73,26.33,64.92,17.33,47.63,17.33Z"/><path class="cls-2" d="M305.17,37l-.06-15.62c0-7.21-3.14-12.06-9.33-14.43l-.33-.12-.83-.28-1.26-.42v.61l.27,45.7V86.19h33.9c1.49,0,3.57-.09,5.28-.26,9.42-1.23,12.91-5.45,14.77-11.72l-42.42,0Z"/><path class="cls-2" d="M47.67,3.65C31.47,3.66,22,6.83,13.84,15,7,21.83,3.65,31.9,3.65,45.73S7,69.55,13.8,76.39c8.13,8.12,17.63,11.28,33.89,11.29s25.77-3.17,33.89-11.29c6.84-6.84,10.16-16.87,10.16-30.66S88.4,21.83,81.54,15C73.38,6.82,63.89,3.65,47.67,3.65ZM68.48,70.23C63.73,75,56.91,77.35,47.63,77.35S31.69,75,26.85,70.17C21.69,65,19.07,57,19.07,46.37c0-11.81,2.57-20.12,7.85-25.4,4.69-4.7,11.46-7,20.71-7,19.3,0,28.69,10.36,28.69,31.68C76.32,57,73.75,65,68.48,70.23Z"/><path class="cls-2" d="M519.19,41c-1.45-.22-3.34-.4-5.53-.6-9-.86-21.28-2-25.76-7.94a8.53,8.53,0,0,1-1.54-6.94c1.52-8.3,10.32-9.32,18.46-9.62,3-.11,6.33.07,9.54.24,4.62.25,9,.49,11.43-.19,6.4-1.76,9.55-8.22,10.8-11.59H502.21c-10.7,0-19,3.07-25.28,9.37-.51.51-1,1-1.44,1.57l0,0c-.47.54-.92,1.1-1.37,1.67A21.19,21.19,0,0,0,470,31.09c.51,5.84,3.79,11,9.48,15,5.31,3.72,14.61,4.43,22.81,5,10.83.83,21.06,1.61,22.23,9.13a9.86,9.86,0,0,1-2.38,8.56c-5.34,5.85-17,5.79-21.74,5.49a63.66,63.66,0,0,1-10.06-1.64c-5.52-1.21-10.28-2.26-14.4.09-3.63,2.06-6.45,5.91-7.79,8,13.06,7,34.63,6.93,34.82,6.94,24.46,0,35.93-6.91,37.22-22.39C541.26,52.86,532.81,43.09,519.19,41Z"/><path class="cls-2" d="M401.1,3.65c-16.19,0-25.67,3.18-33.82,11.31-5.65,5.65-8.9,13.48-9.87,23.78,7.7-15,20-23,37.16-24.33a45.66,45.66,0,0,1,6.5-.43c19.3,0,28.68,10.36,28.68,31.68,0,11.29-2.56,19.32-7.83,24.57-4.75,4.79-11.57,7.12-20.85,7.12S385.12,75,380.29,70.17C375.12,65,372.5,57,372.5,46.37c0-11.81,2.57-20.12,7.86-25.4l.38-.36C369.89,25,362.06,33.73,357.1,46.89c.19,13.19,3.5,22.86,10.14,29.5,8.13,8.12,17.63,11.28,33.89,11.29l1.66,0v0c1.89,0,3.75-.07,5.53-.21a51.72,51.72,0,0,0,17.2-4.14,35.29,35.29,0,0,0,9.5-6.89c6.83-6.84,10.15-16.87,10.15-30.66S441.84,21.83,435,15C426.82,6.82,417.33,3.65,401.1,3.65Z"/><path class="cls-2" d="M382.66,67.8C386.83,72,392.85,74,401.07,74s14.39-2,18.49-6.15h0c4.61-4.58,6.85-11.84,6.85-22.19,0-19.33-8.05-28.33-25.34-28.33-8.31,0-14.32,2-18.35,6-4.62,4.62-6.87,12.15-6.87,23C375.85,56.07,378.14,63.28,382.66,67.8Z"/><path class="cls-3" d="M47.63,13.68c-9.33,0-16.18,2.31-20.92,7.08-5.35,5.34-7.94,13.72-7.94,25.61,0,10.7,2.65,18.78,7.87,24,4.89,4.9,11.76,7.27,21,7.27s16.25-2.36,21.06-7.21C74,65.14,76.62,57,76.62,45.67,76.62,24.14,67.14,13.68,47.63,13.68Zm18.29,54h0c-4,4.08-10,6.06-18.28,6.06s-14.08-2-18.2-6.11C25,63.12,22.72,56,22.72,46.37c0-10.79,2.21-18.26,6.78-22.82,4-4,9.9-5.92,18.13-5.92,17.08,0,25,8.91,25,28C72.67,55.93,70.46,63.11,65.92,67.64Z"/><path class="cls-3" d="M519.75,37.35c-1.56-.23-3.5-.42-5.75-.63-7.83-.74-19.65-1.86-23.15-6.49a4.89,4.89,0,0,1-.85-4c.93-5.08,6.18-6.26,14.95-6.58,2.86-.11,6.09.07,9.24.24,4.92.26,9.56.51,12.59-.32,10.87-3,13.94-15.87,14.07-16.41l.56-2.45h-39.2c-11.73,0-20.86,3.42-27.89,10.46a29,29,0,0,0-3.13,3.68c-5.58,7.17-9.43,16.24-13.51,25.85-3.32,7.8-6.73,15.84-11.19,23a61.53,61.53,0,0,0,2.33-17.88c0-14.85-3.68-25.76-11.26-33.35C428.75,3.59,418.19,0,401.1,0s-27.6,3.59-36.4,12.38c-7.58,7.59-11.26,18.5-11.26,33.35,0,.37,0,.73,0,1.09v.39a91.8,91.8,0,0,0-2.77,9.68c-.65,2.83-1.1,5.55-1.54,8.18-.3,1.83-.61,3.72-1,5.44l-39.37-.06V36.06l-.06-14.84c0-10-5.29-14.74-9.74-17C296.4,3,290.72,1,282,1c-9.58,0-15.63,2.62-17.8,3.76-6,3.31-9,8.88-9,16.56l-.06,14.85v3.53c0,24.11-2.49,30.17-21.12,30.18-9.81,0-14.72-1.68-17.53-6-3-4.57-3.58-12.33-3.58-24.19V36.15L212.9,21.3c0-10-5.27-14.79-9.94-17.07h0L202.37,4c-.49-.22-1.14-.48-1.88-.74L199.73,3l-1.58-.52c-1.11-.32-3.38-.9-3.92-1l-.38-.1V41.82c0,13.07,1.38,22.41,4.35,29.36a34.33,34.33,0,0,1-12.86,10.63c-2.19-5.44-7-11.77-17.63-11.77H155.62c-3.21,0-14.06-.38-18.81-5.18-7.21-7.28-7.15-18.42-7.15-18.9v-.54c0-.48,0-11.65,7.15-18.92,4.62-4.66,14.15-5.17,18-5.17h7.83c9.33,0,14.1-5,16.47-9.28l.05,0,4.88-10.4h-29.9c-21.59,0-31.36,7.71-31.44,7.78l-.08.06A34.25,34.25,0,0,0,118.4,13h0l-.87.81-.18.15c-10.72,9.35-15.18,21.76-19.49,33.77-1.14,3.17-2.15,5.94-3.2,8.59a73.19,73.19,0,0,0,.72-10.55c0-14.85-3.68-25.76-11.26-33.35C75.31,3.59,64.75,0,47.67,0S20.07,3.59,11.26,12.38C3.68,20,0,30.88,0,45.73S3.67,71.41,11.22,79C20,87.74,30.57,91.32,47.69,91.33c10.37,0,18.22-1.34,24.69-4.21l.09,0c.75-.33,2.31-1.07,3.1-1.46h0l.31-.16c15.48-7.89,20.7-22.4,25.74-36.44a156.66,156.66,0,0,1,6.24-15.58,59.16,59.16,0,0,0-.93,10.74v3c0,9.43,1.9,17.46,5.63,23.87a33.77,33.77,0,0,0,10.11,10.85c2,1.35,13,8.07,32.1,8.11h.28c14.58,0,22.49-1.57,25.91-2.5a39.57,39.57,0,0,0,13.29-6.68,37.31,37.31,0,0,0,5.92-5.74c.51.85,1,1.64,1.58,2.38,6.15,8.24,16.42,12.08,32.33,12.08s26.15-3.84,32.29-12.08c5.47-7.32,7.91-18.32,7.91-35.64V5.46a47,47,0,0,1,15.43,0L290,52.43V89.75H327.6l.3,0h0A33.9,33.9,0,0,0,339,87.9a18,18,0,0,0,6.34-3.59,12.34,12.34,0,0,0,1.17-1.12l.16-.21c3.92-4.46,5-10.71,6.05-17.32.43-2.58.87-5.24,1.5-8,0-.15.07-.31.11-.46,1.49,9.14,4.88,16.27,10.35,21.74,8.78,8.77,19.35,12.35,36.47,12.36h1.66c2,0,3.93-.07,5.81-.22a61.16,61.16,0,0,0,6.45-.83,45.68,45.68,0,0,0,9.79-2.73c20.69-8.07,29.1-27.86,36.52-45.33,1.59-3.74,3.23-7.61,4.95-11.25l0,.44c.61,7,4.43,13.1,11.05,17.73,6.14,4.3,15.54,5,24.64,5.71,9.33.72,18.14,1.39,18.87,6a6.25,6.25,0,0,1-1.47,5.5c-2.9,3.19-10.1,4.83-18.77,4.29a62.78,62.78,0,0,1-9.5-1.56c-6-1.33-11.67-2.57-17,.48-6,3.44-9.9,10.57-10.06,10.87l-.9,1.66,1.61,1c13.2,8.1,35.5,8.33,38,8.33H503c16.64,0,39-2.67,40.9-25.78C545.1,51.33,535.17,39.7,519.75,37.35ZM81.37,76.18c-8.06,8-17.5,11.2-33.68,11.2S22.08,84.23,14,76.18C7.24,69.4,4,59.44,4,45.73S7.25,22,14.05,15.17C22.14,7.1,31.56,4,47.67,4S73.24,7.1,81.33,15.16C88.13,22,91.44,32,91.44,45.73S88.14,69.4,81.37,76.18Zm100.28,7.14c-1.31.58-8.76,3.47-26.82,3.2-12.08-.19-20.37-3-25.2-5.23a23.87,23.87,0,0,1-4.42-2.43l-.35-.26a23.75,23.75,0,0,1-2.56-2A29.7,29.7,0,0,1,116,69.05c-3.38-5.8-5.09-13.16-5.09-21.88v-3c0-8.72,1.71-16.08,5.09-21.88a29.9,29.9,0,0,1,8.93-9.58l.3-.22a26.65,26.65,0,0,1,6.34-3.23c4.38-1.68,11.87-3.68,22.63-3.68h23.61l-1.19,2.61c-.21.5-.41.94-.62,1.35-2.61,5.11-7.2,7.81-13.3,7.81h-7.83c-4.38,0-15.17.61-20.83,6.34-8.29,8.37-8.3,21.15-8.3,21.69v.52c0,.54,0,13.33,8.3,21.7,5.82,5.89,18,6.34,21.61,6.34h12.09c6.67,0,11.49,3.23,14,9.33ZM200.87,67.1c-2.09-6.19-3.07-14.25-3.07-25.28V6.61l.87.29.82.27.32.13c6.07,2.32,9.14,7.08,9.14,14.14l0,7.72C208.84,45.13,206.11,57.89,200.87,67.1Zm69.46-25.28c0,16.42-2.2,26.68-7.12,33.28-5.34,7.15-14.61,10.49-29.16,10.49s-23.79-3.34-29.13-10.49a24.6,24.6,0,0,1-2.16-3.48,54.51,54.51,0,0,0,7-16.24c1.61,11.41,6.57,18.42,24.27,18.42,22.69,0,25.06-10.4,25.06-34.12V37.06l.05-15.63c0-7.06,3.08-11.81,9.15-14.13l.23-.09.93-.32.85-.28Zm62.45,43.81c-1.72.18-3.8.24-5.25.26h-33.6V52.42l-.27-45.7v-.2l.87.3q.41.12.81.27l.33.12c6.07,2.32,9.14,7.08,9.14,14.15L304.87,37V74.46l42.32.05C345.61,79.56,342.67,84.34,332.78,85.63Zm102-9.45A35,35,0,0,1,425.39,83a51.66,51.66,0,0,1-17.09,4.13c-1.77.13-3.63.2-5.51.2l-.46,0h-1.2c-16.17,0-25.62-3.15-33.68-11.2C360.88,69.61,357.6,60,357.4,47c4.75-12.57,12-20.91,22.05-25.46-4.87,5.36-7.24,13.52-7.24,24.88,0,10.7,2.64,18.78,7.87,24,4.89,4.9,11.76,7.27,21,7.27s16.25-2.36,21.06-7.21c5.33-5.3,7.92-13.41,7.92-24.77,0-21.53-9.48-32-29-32a45.89,45.89,0,0,0-6.53.43c-16.84,1.34-28.86,8.9-36.67,23.12,1.14-9.49,4.29-16.72,9.62-22.06C375.58,7.1,385,4,401.1,4s25.57,3.15,33.66,11.21C441.57,22,444.87,32,444.87,45.73S441.58,69.4,434.81,76.18ZM382.93,23.55h0c4-4,9.91-5.92,18.14-5.92,17.08,0,25,8.91,25,28,0,10.26-2.21,17.45-6.76,22-4.05,4.08-10,6.06-18.28,6.06s-14.09-2-18.2-6.11c-4.46-4.47-6.72-11.61-6.72-21.22C376.15,35.58,378.37,28.11,382.93,23.55Zm157,41.75C538.65,80.6,527.26,87.42,503,87.42h-.09c-3.65,0-22.33-.46-34.31-6.75,1.4-2.13,4.1-5.68,7.5-7.62,4-2.29,8.74-1.26,14.19-.06a63.9,63.9,0,0,0,10.11,1.65c4.8.31,16.55.37,22-5.58a10.17,10.17,0,0,0,2.46-8.82c-1.21-7.75-11.56-8.54-22.51-9.38-8.16-.62-17.41-1.33-22.65-5-5.62-3.93-8.86-9-9.36-14.8a20,20,0,0,1,1.91-10.14l.11-.28c.28-.55.93-1.83,1.48-2.7a20.23,20.23,0,0,1,1.86-2.39l.09-.1c.49-.58.93-1.06,1.36-1.49,6.25-6.25,14.45-9.29,25.07-9.29h33.94c-1.38,3.58-4.48,9.36-10.44,11-2.39.66-6.7.43-11.33.18-3.21-.17-6.54-.35-9.57-.24-8.26.3-17.19,1.34-18.75,9.86a8.81,8.81,0,0,0,1.6,7.18c4.56,6,16.93,7.2,26,8.05,2.18.21,4.06.39,5.52.61C532.6,43.36,541,53,539.92,65.3Z"/></g></g></svg>